Khula-ExBold.ufo
<glyph name="ideva" format="1">
  <advance width="1149"/>
  <unicode hex="0907"/>
  <outline>
    <contour>
      <point x="557" y="142" type="line"/>
      <point x="868" y="-187" type="line"/>
      <point x="655" y="-320" type="line"/>
      <point x="309" y="59" type="line"/>
      <point x="443" y="-33" type="line"/>
      <point x="178" y="-33"/>
      <point x="80" y="83"/>
      <point x="80" y="167" type="curve" smooth="yes"/>
      <point x="80" y="244"/>
      <point x="147" y="316"/>
      <point x="249" y="316" type="curve" smooth="yes"/>
      <point x="339" y="316"/>
      <point x="422" y="277"/>
      <point x="530" y="170" type="curve"/>
    </contour>
    <contour>
      <point x="599" y="1086" type="line"/>
      <point x="947" y="1086" type="line"/>
      <point x="947" y="723" type="line"/>
      <point x="478" y="723" type="line"/>
      <point x="402" y="723"/>
      <point x="373" y="690"/>
      <point x="373" y="648" type="curve" smooth="yes"/>
      <point x="373" y="611"/>
      <point x="398" y="588"/>
      <point x="460" y="558" type="curve"/>
      <point x="347" y="575" type="line"/>
      <point x="442" y="608"/>
      <point x="553" y="630"/>
      <point x="688" y="630" type="curve" smooth="yes"/>
      <point x="897" y="630"/>
      <point x="1050" y="510"/>
      <point x="1050" y="332" type="curve" smooth="yes"/>
      <point x="1050" y="132"/>
      <point x="882" y="-21"/>
      <point x="508" y="-21" type="curve"/>
      <point x="457" y="218" type="line"/>
      <point x="674" y="218"/>
      <point x="742" y="275"/>
      <point x="742" y="326" type="curve" smooth="yes"/>
      <point x="742" y="367"/>
      <point x="704" y="388"/>
      <point x="640" y="388" type="curve" smooth="yes"/>
      <point x="579" y="388"/>
      <point x="490" y="369"/>
      <point x="412" y="336" type="curve"/>
      <point x="403" y="336" type="line"/>
      <point x="156" y="448"/>
      <point x="70" y="565"/>
      <point x="70" y="700" type="curve" smooth="yes"/>
      <point x="70" y="828"/>
      <point x="165" y="946"/>
      <point x="400" y="946" type="curve" smooth="yes"/>
      <point x="666" y="946" type="line"/>
      <point x="599" y="880" type="line"/>
    </contour>
    <contour>
      <point x="1179" y="1065" type="line"/>
      <point x="-30" y="1065" type="line"/>
      <point x="-30" y="1293" type="line"/>
      <point x="1179" y="1293" type="line"/>
    </contour>
  </outline>
</glyph>
<glyph name="udeva" format="1">
  <advance width="1125"/>
  <unicode hex="0909"/>
  <outline>
    <contour>
      <point x="323" y="540" type="line"/>
      <point x="262" y="808" type="line"/>
      <point x="288" y="809" type="line"/>
      <point x="568" y="829"/>
      <point x="624" y="893"/>
      <point x="624" y="969" type="curve" smooth="yes"/>
      <point x="624" y="1029"/>
      <point x="593" y="1065"/>
      <point x="479" y="1078" type="curve"/>
      <point x="559" y="1265" type="line"/>
      <point x="796" y="1242"/>
      <point x="936" y="1141"/>
      <point x="936" y="928" type="curve" smooth="yes"/>
      <point x="936" y="728"/>
      <point x="766" y="569"/>
      <point x="351" y="541" type="curve" smooth="yes"/>
    </contour>
    <contour>
      <point x="-30" y="1065" type="line"/>
      <point x="-30" y="1293" type="line"/>
      <point x="1155" y="1293" type="line"/>
      <point x="1155" y="1065" type="line"/>
    </contour>
    <contour>
      <point x="708" y="754" type="line"/>
      <point x="896" y="688"/>
      <point x="1024" y="537"/>
      <point x="1024" y="361" type="curve" smooth="yes"/>
      <point x="1024" y="146"/>
      <point x="869" y="-3"/>
      <point x="582" y="-3" type="curve" smooth="yes"/>
      <point x="385" y="-3"/>
      <point x="196" y="65"/>
      <point x="35" y="175" type="curve"/>
      <point x="120" y="433" type="line"/>
      <point x="249" y="339"/>
      <point x="398" y="282"/>
      <point x="505" y="282" type="curve" smooth="yes"/>
      <point x="622" y="282"/>
      <point x="687" y="339"/>
      <point x="687" y="419" type="curve" smooth="yes"/>
      <point x="687" y="490"/>
      <point x="632" y="565"/>
      <point x="503" y="589" type="curve"/>
    </contour>
    <contour>
      <point x="499" y="1293" type="move" name="top"/>
    </contour>
  </outline>
</glyph>
<glyph name="ngadeva" format="1">
  <advance width="1480"/>
  <unicode hex="0919"/>
  <outline>
    <contour>
      <point x="1178" y="1065" type="line"/>
      <point x="1178" y="1293" type="line"/>
      <point x="1510" y="1293" type="line"/>
      <point x="1510" y="1065" type="line"/>
    </contour>
    <contour>
      <point x="1269" y="812" type="curve" smooth="yes"/>
      <point x="1401" y="812"/>
      <point x="1444" y="732"/>
      <point x="1444" y="668" type="curve" smooth="yes"/>
      <point x="1444" y="604"/>
      <point x="1393" y="524"/>
      <point x="1269" y="524" type="curve" smooth="yes"/>
      <point x="1136" y="524"/>
      <point x="1090" y="605"/>
      <point x="1090" y="668" type="curve" smooth="yes"/>
      <point x="1090" y="731"/>
      <point x="1139" y="812"/>
    </contour>
    <component base="ddadeva"/>
    <contour>
      <point x="511" y="-14" type="move" name="btm"/>
    </contour>
    <contour>
      <point x="691" y="1293" type="move" name="top"/>
    </contour>
  </outline>
</glyph>
<glyph name="tthadeva" format="1">
  <advance width="1354"/>
  <unicode hex="0920"/>
  <outline>
    <contour>
      <point x="967" y="484" type="curve" smooth="yes"/>
      <point x="967" y="558"/>
      <point x="923" y="610"/>
      <point x="867" y="655" type="curve"/>
      <point x="683" y="655" type="line"/>
      <point x="483" y="655"/>
      <point x="397" y="572"/>
      <point x="397" y="461" type="curve" smooth="yes"/>
      <point x="397" y="347"/>
      <point x="494" y="257"/>
      <point x="665" y="257" type="curve" smooth="yes"/>
      <point x="851" y="257"/>
      <point x="967" y="345"/>
    </contour>
    <contour>
      <point x="1384" y="1065" type="line"/>
      <point x="-30" y="1065" type="line"/>
      <point x="-30" y="1293" type="line"/>
      <point x="1384" y="1293" type="line"/>
    </contour>
    <contour>
      <point x="722" y="1086" type="line"/>
      <point x="1071" y="1086" type="line"/>
      <point x="1071" y="773" type="line"/>
      <point x="1036" y="846" type="line"/>
      <point x="1143" y="785"/>
      <point x="1271" y="634"/>
      <point x="1271" y="434" type="curve" smooth="yes"/>
      <point x="1271" y="207"/>
      <point x="1084" y="7"/>
      <point x="717" y="7" type="curve" smooth="yes"/>
      <point x="296" y="7"/>
      <point x="68" y="250"/>
      <point x="68" y="509" type="curve" smooth="yes"/>
      <point x="68" y="755"/>
      <point x="245" y="908"/>
      <point x="566" y="908" type="curve" smooth="yes"/>
      <point x="784" y="908" type="line"/>
      <point x="722" y="851" type="line"/>
    </contour>
    <contour>
      <point x="529" y="25" type="move" name="btm"/>
    </contour>
    <contour>
      <point x="722" y="1293" type="move" name="top"/>
    </contour>
  </outline>
</glyph>
<glyph name="ddadeva" format="1">
  <advance width="1261"/>
  <unicode hex="0921"/>
  <outline>
    <contour>
      <point x="691" y="1086" type="line"/>
      <point x="1040" y="1086" type="line"/>
      <point x="1040" y="723" type="line"/>
      <point x="522" y="723" type="line"/>
      <point x="446" y="723"/>
      <point x="419" y="687"/>
      <point x="419" y="648" type="curve" smooth="yes"/>
      <point x="419" y="613"/>
      <point x="443" y="588"/>
      <point x="507" y="557" type="curve"/>
      <point x="395" y="574" type="line"/>
      <point x="484" y="612"/>
      <point x="602" y="634"/>
      <point x="759" y="634" type="curve" smooth="yes"/>
      <point x="997" y="634"/>
      <point x="1159" y="508"/>
      <point x="1159" y="322" type="curve" smooth="yes"/>
      <point x="1159" y="121"/>
      <point x="1016" y="-23"/>
      <point x="649" y="-23" type="curve" smooth="yes"/>
      <point x="449" y="-23"/>
      <point x="276" y="19"/>
      <point x="55" y="131" type="curve"/>
      <point x="115" y="378" type="line"/>
      <point x="310" y="267"/>
      <point x="486" y="218"/>
      <point x="623" y="218" type="curve" smooth="yes"/>
      <point x="779" y="218"/>
      <point x="835" y="273"/>
      <point x="835" y="323" type="curve" smooth="yes"/>
      <point x="835" y="365"/>
      <point x="794" y="387"/>
      <point x="706" y="387" type="curve" smooth="yes"/>
      <point x="618" y="387"/>
      <point x="528" y="366"/>
      <point x="460" y="335" type="curve"/>
      <point x="452" y="335" type="line"/>
      <point x="206" y="444"/>
      <point x="116" y="565"/>
      <point x="116" y="701" type="curve" smooth="yes"/>
      <point x="116" y="821"/>
      <point x="203" y="946"/>
      <point x="446" y="946" type="curve" smooth="yes"/>
      <point x="758" y="946" type="line"/>
      <point x="691" y="880" type="line"/>
    </contour>
    <contour>
      <point x="1291" y="1065" type="line"/>
      <point x="-30" y="1065" type="line"/>
      <point x="-30" y="1293" type="line"/>
      <point x="1291" y="1293" type="line"/>
    </contour>
    <contour>
      <point x="473" y="-9" type="move" name="btm"/>
    </contour>
    <contour>
      <point x="691" y="1293" type="move" name="top"/>
    </contour>
  </outline>
</glyph>
<glyph name="dadeva" format="1">
  <advance width="1248"/>
  <unicode hex="0926"/>
  <outline>
    <contour>
      <point x="-30" y="1065" type="line"/>
      <point x="-30" y="1293" type="line"/>
      <point x="1278" y="1293" type="line"/>
      <point x="1278" y="1065" type="line"/>
    </contour>
    <contour>
      <point x="675" y="166" type="line"/>
      <point x="939" y="247" type="line"/>
      <point x="1170" y="-188" type="line"/>
      <point x="918" y="-294" type="line"/>
    </contour>
    <contour>
      <point x="669" y="51" type="curve" smooth="yes"/>
      <point x="316" y="51"/>
      <point x="68" y="240"/>
      <point x="68" y="511" type="curve" smooth="yes"/>
      <point x="68" y="737"/>
      <point x="221" y="908"/>
      <point x="577" y="908" type="curve" smooth="yes"/>
      <point x="721" y="908" type="line"/>
      <point x="652" y="852" type="line"/>
      <point x="652" y="1096" type="line"/>
      <point x="1001" y="1096" type="line"/>
      <point x="1001" y="666" type="line"/>
      <point x="673" y="666" type="line"/>
      <point x="472" y="666"/>
      <point x="389" y="587"/>
      <point x="389" y="470" type="curve" smooth="yes"/>
      <point x="389" y="364"/>
      <point x="482" y="292"/>
      <point x="607" y="292" type="curve" smooth="yes"/>
      <point x="699" y="292"/>
      <point x="755" y="296"/>
      <point x="862" y="319" type="curve"/>
      <point x="657" y="204" type="line"/>
      <point x="628" y="259"/>
      <point x="615" y="313"/>
      <point x="615" y="369" type="curve" smooth="yes"/>
      <point x="615" y="435"/>
      <point x="656" y="510"/>
      <point x="802" y="510" type="curve" smooth="yes"/>
      <point x="999" y="510"/>
      <point x="1149" y="411"/>
      <point x="1149" y="291" type="curve" smooth="yes"/>
      <point x="1149" y="169"/>
      <point x="988" y="51"/>
    </contour>
    <contour>
      <point x="864" y="-191" type="move" name="btm"/>
    </contour>
    <contour>
      <point x="652" y="1293" type="move" name="top"/>
    </contour>
  </outline>
</glyph>
<glyph name="phadeva" format="1">
  <advance width="1822"/>
  <unicode hex="092B"/>
  <outline>
    <contour>
      <point x="471" y="1171" type="line"/>
      <point x="471" y="708" type="line"/>
      <point x="471" y="618"/>
      <point x="512" y="571"/>
      <point x="586" y="571" type="curve" smooth="yes"/>
      <point x="660" y="571"/>
      <point x="738" y="606"/>
      <point x="802" y="678" type="curve"/>
      <point x="802" y="315" type="line"/>
      <point x="754" y="301"/>
      <point x="698" y="295"/>
      <point x="628" y="295" type="curve" smooth="yes"/>
      <point x="319" y="295"/>
      <point x="122" y="475"/>
      <point x="122" y="787" type="curve" smooth="yes"/>
      <point x="122" y="1171" type="line"/>
    </contour>
    <contour>
      <point x="-30" y="1065" type="line"/>
      <point x="-30" y="1293" type="line"/>
      <point x="1852" y="1293" type="line"/>
      <point x="1852" y="1065" type="line"/>
    </contour>
    <contour>
      <point x="772" y="1104" type="line"/>
      <point x="1121" y="1104" type="line"/>
      <point x="1121" y="0" type="line"/>
      <point x="772" y="0" type="line"/>
    </contour>
    <contour>
      <point x="1051" y="348" type="curve"/>
      <point x="1042" y="819" type="line"/>
      <point x="1086" y="828"/>
      <point x="1162" y="838"/>
      <point x="1240" y="838" type="curve" smooth="yes"/>
      <point x="1513" y="838"/>
      <point x="1712" y="679"/>
      <point x="1712" y="439" type="curve" smooth="yes"/>
      <point x="1712" y="320"/>
      <point x="1663" y="200"/>
      <point x="1588" y="102" type="curve"/>
      <point x="1292" y="206" type="line"/>
      <point x="1357" y="299"/>
      <point x="1394" y="381"/>
      <point x="1394" y="461" type="curve" smooth="yes"/>
      <point x="1394" y="520"/>
      <point x="1355" y="558"/>
      <point x="1290" y="558" type="curve" smooth="yes"/>
      <point x="1211" y="558"/>
      <point x="1132" y="491"/>
    </contour>
    <contour>
      <point x="772" y="0" type="move" name="btm"/>
    </contour>
    <contour>
      <point x="772" y="1293" type="move" name="top"/>
    </contour>
  </outline>
</glyph>
<glyph name="badeva" format="1">
  <advance width="1294"/>
  <unicode hex="092C"/>
  <outline>
    <contour>
      <point x="781" y="436" type="line"/>
      <point x="656" y="344" type="line"/>
      <point x="349" y="694" type="line"/>
      <point x="474" y="786" type="line"/>
    </contour>
    <contour>
      <point x="1324" y="1065" type="line"/>
      <point x="-30" y="1065" type="line"/>
      <point x="-30" y="1293" type="line"/>
      <point x="1324" y="1293" type="line"/>
    </contour>
    <contour>
      <point x="795" y="571" type="curve"/>
      <point x="795" y="214" type="line"/>
      <point x="729" y="179"/>
      <point x="654" y="159"/>
      <point x="560" y="159" type="curve" smooth="yes"/>
      <point x="250" y="159"/>
      <point x="58" y="376"/>
      <point x="58" y="615" type="curve" smooth="yes"/>
      <point x="58" y="812"/>
      <point x="216" y="951"/>
      <point x="463" y="951" type="curve" smooth="yes"/>
      <point x="619" y="951"/>
      <point x="746" y="925"/>
      <point x="851" y="883" type="curve"/>
      <point x="851" y="634" type="line"/>
      <point x="735" y="681"/>
      <point x="654" y="706"/>
      <point x="556" y="706" type="curve" smooth="yes"/>
      <point x="437" y="706"/>
      <point x="369" y="655"/>
      <point x="369" y="559" type="curve" smooth="yes"/>
      <point x="369" y="483"/>
      <point x="427" y="420"/>
      <point x="513" y="420" type="curve" smooth="yes"/>
      <point x="619" y="420"/>
      <point x="713" y="469"/>
    </contour>
    <contour>
      <point x="757" y="1104" type="line"/>
      <point x="1106" y="1104" type="line"/>
      <point x="1106" y="0" type="line"/>
      <point x="757" y="0" type="line"/>
    </contour>
    <contour>
      <point x="757" y="1293" type="move" name="top"/>
    </contour>
  </outline>
</glyph>
<glyph name="bhadeva" format="1">
  <advance width="1545"/>
  <unicode hex="092D"/>
  <outline>
    <contour>
      <point x="1008" y="1104" type="line"/>
      <point x="1357" y="1104" type="line"/>
      <point x="1357" y="0" type="line"/>
      <point x="1008" y="0" type="line"/>
    </contour>
    <contour>
      <point x="1575" y="1065" type="line"/>
      <point x="931" y="1065" type="line"/>
      <point x="931" y="1293" type="line"/>
      <point x="1575" y="1293" type="line"/>
    </contour>
    <contour>
      <point x="443" y="693" type="line"/>
      <point x="407" y="663" type="line"/>
      <point x="407" y="994" type="line"/>
      <point x="407" y="1090"/>
      <point x="358" y="1141"/>
      <point x="293" y="1141" type="curve" smooth="yes"/>
      <point x="242" y="1141"/>
      <point x="211" y="1106"/>
      <point x="211" y="1062" type="curve" smooth="yes"/>
      <point x="211" y="1005"/>
      <point x="261" y="956"/>
      <point x="421" y="955" type="curve"/>
      <point x="424" y="757" type="line"/>
      <point x="73" y="758"/>
      <point x="-84" y="913"/>
      <point x="-84" y="1105" type="curve" smooth="yes"/>
      <point x="-84" y="1245"/>
      <point x="18" y="1379"/>
      <point x="257" y="1379" type="curve" smooth="yes"/>
      <point x="527" y="1379"/>
      <point x="727" y="1205"/>
      <point x="727" y="949" type="curve" smooth="yes"/>
      <point x="727" y="650" type="line"/>
      <point x="694" y="693" type="line"/>
      <point x="1036" y="693" type="line"/>
      <point x="1036" y="410" type="line"/>
      <point x="677" y="410" type="line"/>
      <point x="727" y="459" type="line"/>
      <point x="727" y="329" type="line"/>
      <point x="727" y="240"/>
      <point x="694" y="187"/>
      <point x="606" y="187" type="curve" smooth="yes"/>
      <point x="523" y="187"/>
      <point x="410" y="239"/>
      <point x="331" y="318" type="curve" smooth="yes"/>
      <point x="262" y="387"/>
      <point x="207" y="486"/>
      <point x="207" y="572" type="curve" smooth="yes"/>
      <point x="207" y="643"/>
      <point x="251" y="693"/>
      <point x="337" y="693" type="curve" smooth="yes"/>
    </contour>
    <contour>
      <point x="1008" y="1293" type="move" name="top"/>
    </contour>
  </outline>
</glyph>
<glyph name="yadeva" format="1">
  <advance width="1422"/>
  <unicode hex="092F"/>
  <outline>
    <contour>
      <point x="-30" y="1065" type="line"/>
      <point x="-30" y="1293" type="line"/>
      <point x="1452" y="1293" type="line"/>
      <point x="1452" y="1065" type="line"/>
    </contour>
    <contour>
      <point x="320" y="1104" type="line"/>
      <point x="669" y="1104" type="line"/>
      <point x="669" y="933" type="line"/>
      <point x="669" y="713"/>
      <point x="577" y="588"/>
      <point x="343" y="518" type="curve"/>
      <point x="343" y="622" type="line"/>
      <point x="407" y="538"/>
      <point x="484" y="490"/>
      <point x="597" y="490" type="curve" smooth="yes"/>
      <point x="753" y="490"/>
      <point x="874" y="570"/>
      <point x="931" y="703" type="curve"/>
      <point x="931" y="244" type="line"/>
      <point x="874" y="223"/>
      <point x="805" y="212"/>
      <point x="712" y="212" type="curve" smooth="yes"/>
      <point x="403" y="212"/>
      <point x="141" y="398"/>
      <point x="13" y="669" type="curve"/>
      <point x="13" y="674" type="line"/>
      <point x="229" y="746"/>
      <point x="320" y="824"/>
      <point x="320" y="957" type="curve" smooth="yes"/>
    </contour>
    <contour>
      <point x="885" y="1104" type="line"/>
      <point x="1234" y="1104" type="line"/>
      <point x="1234" y="0" type="line"/>
      <point x="885" y="0" type="line"/>
    </contour>
    <contour>
      <point x="885" y="1293" type="move" name="top"/>
    </contour>
  </outline>
</glyph>
<glyph name="ladeva" format="1">
  <advance width="1653"/>
  <unicode hex="0932"/>
  <outline>
    <contour>
      <point x="1037" y="635" type="curve"/>
      <point x="833" y="465" type="line"/>
      <point x="744" y="570"/>
      <point x="665" y="618"/>
      <point x="570" y="618" type="curve" smooth="yes"/>
      <point x="454" y="618"/>
      <point x="387" y="532"/>
      <point x="387" y="436" type="curve" smooth="yes"/>
      <point x="387" y="341"/>
      <point x="445" y="253"/>
      <point x="598" y="107" type="curve"/>
      <point x="354" y="-22" type="line"/>
      <point x="175" y="140"/>
      <point x="70" y="321"/>
      <point x="70" y="510" type="curve" smooth="yes"/>
      <point x="70" y="740"/>
      <point x="233" y="908"/>
      <point x="468" y="908" type="curve" smooth="yes"/>
      <point x="687" y="908"/>
      <point x="837" y="830"/>
    </contour>
    <contour>
      <point x="1117" y="1104" type="line"/>
      <point x="1465" y="1104" type="line"/>
      <point x="1465" y="0" type="line"/>
      <point x="1117" y="0" type="line"/>
    </contour>
    <contour>
      <point x="-30" y="1065" type="line"/>
      <point x="-30" y="1293" type="line"/>
      <point x="1683" y="1293" type="line"/>
      <point x="1683" y="1065" type="line"/>
    </contour>
    <contour>
      <point x="1234" y="997" type="line"/>
      <point x="1234" y="599" type="line"/>
      <point x="801" y="197" type="line"/>
      <point x="584" y="396" type="line"/>
    </contour>
    <contour>
      <point x="1117" y="1293" type="move" name="top"/>
    </contour>
  </outline>
</glyph>
<glyph name="vadeva" format="1">
  <advance width="1294"/>
  <unicode hex="0935"/>
  <outline>
    <contour>
      <point x="1324" y="1065" type="line"/>
      <point x="-30" y="1065" type="line"/>
      <point x="-30" y="1293" type="line"/>
      <point x="1324" y="1293" type="line"/>
    </contour>
    <contour>
      <point x="795" y="575" type="curve"/>
      <point x="795" y="214" type="line"/>
      <point x="729" y="179"/>
      <point x="654" y="159"/>
      <point x="560" y="159" type="curve" smooth="yes"/>
      <point x="250" y="159"/>
      <point x="58" y="376"/>
      <point x="58" y="615" type="curve" smooth="yes"/>
      <point x="58" y="812"/>
      <point x="216" y="951"/>
      <point x="463" y="951" type="curve" smooth="yes"/>
      <point x="619" y="951"/>
      <point x="746" y="925"/>
      <point x="851" y="883" type="curve"/>
      <point x="851" y="632" type="line"/>
      <point x="735" y="679"/>
      <point x="656" y="699"/>
      <point x="558" y="699" type="curve" smooth="yes"/>
      <point x="440" y="699"/>
      <point x="381" y="634"/>
      <point x="381" y="556" type="curve" smooth="yes"/>
      <point x="381" y="480"/>
      <point x="436" y="425"/>
      <point x="513" y="425" type="curve" smooth="yes"/>
      <point x="619" y="425"/>
      <point x="704" y="472"/>
    </contour>
    <contour>
      <point x="757" y="1104" type="line"/>
      <point x="1106" y="1104" type="line"/>
      <point x="1106" y="0" type="line"/>
      <point x="757" y="0" type="line"/>
    </contour>
    <contour>
      <point x="757" y="1293" type="move" name="top"/>
    </contour>
  </outline>
</glyph>
<glyph name="iivowelsigndeva" format="1">
  <advance width="676"/>
  <unicode hex="0940"/>
  <outline>
    <contour>
      <point x="138" y="1239" type="line"/>
      <point x="52" y="1442"/>
      <point x="-70" y="1535"/>
      <point x="-184" y="1535" type="curve" smooth="yes"/>
      <point x="-257" y="1535"/>
      <point x="-296" y="1484"/>
      <point x="-296" y="1420" type="curve" smooth="yes"/>
      <point x="-296" y="1356"/>
      <point x="-262" y="1304"/>
      <point x="-214" y="1251" type="curve"/>
      <point x="-557" y="1251" type="line"/>
      <point x="-599" y="1324"/>
      <point x="-630" y="1398"/>
      <point x="-630" y="1504" type="curve" smooth="yes"/>
      <point x="-630" y="1658"/>
      <point x="-521" y="1828"/>
      <point x="-253" y="1828" type="curve" smooth="yes"/>
      <point x="68" y="1828"/>
      <point x="333" y="1619"/>
      <point x="484" y="1239" type="curve"/>
    </contour>
    <component base="aavowelsigndeva"/>
  </outline>
</glyph>
<glyph name="uuevowelsigndevaKSH" format="1">
  <advance width="0"/>
  <unicode hex="0957"/>
  <outline>
    <component base="uevowelsigndevaKSH" yScale="0.901356680986" yOffset="-3"/>
    <component base="uevowelsigndevaKSH" xScale="1.05621863882" yScale="0.859139789362" xOffset="29" yOffset="-351"/>
    <contour>
      <point x="-539" y="0" type="move" name="_btm"/>
    </contour>
  </outline>
</glyph>
<glyph name="onedeva" format="1">
  <advance width="1039"/>
  <unicode hex="0967"/>
  <outline>
    <contour>
      <point x="183" y="351" type="line"/>
      <point x="519" y="675" type="line"/>
      <point x="609" y="763"/>
      <point x="655" y="836"/>
      <point x="655" y="905" type="curve" smooth="yes"/>
      <point x="655" y="976"/>
      <point x="600" y="1038"/>
      <point x="519" y="1038" type="curve" smooth="yes"/>
      <point x="446" y="1038"/>
      <point x="388" y="984"/>
      <point x="388" y="912" type="curve" smooth="yes"/>
      <point x="388" y="827"/>
      <point x="478" y="749"/>
      <point x="658" y="717" type="curve"/>
      <point x="503" y="500" type="line"/>
      <point x="181" y="591"/>
      <point x="69" y="766"/>
      <point x="69" y="945" type="curve" smooth="yes"/>
      <point x="69" y="1133"/>
      <point x="212" y="1312"/>
      <point x="512" y="1312" type="curve" smooth="yes"/>
      <point x="810" y="1312"/>
      <point x="969" y="1102"/>
      <point x="969" y="911" type="curve" smooth="yes"/>
      <point x="969" y="769"/>
      <point x="921" y="676"/>
      <point x="826" y="574" type="curve" smooth="yes"/>
      <point x="573" y="301" type="line"/>
      <point x="526" y="418" type="line"/>
      <point x="781" y="205" type="line"/>
      <point x="881" y="121"/>
      <point x="912" y="50"/>
      <point x="912" y="-18" type="curve" smooth="yes"/>
      <point x="912" y="-85"/>
      <point x="885" y="-145"/>
      <point x="843" y="-207" type="curve"/>
      <point x="532" y="-119" type="line"/>
      <point x="552" y="-87"/>
      <point x="562" y="-63"/>
      <point x="562" y="-25" type="curve" smooth="yes"/>
      <point x="562" y="14"/>
      <point x="536" y="45"/>
      <point x="499" y="74" type="curve" smooth="yes"/>
      <point x="183" y="320" type="line"/>
    </contour>
  </outline>
</glyph>
<glyph name="threedeva" format="1">
  <advance width="1049"/>
  <unicode hex="0969"/>
  <outline>
    <contour>
      <point x="309" y="114" type="line"/>
      <point x="575" y="198" type="line"/>
      <point x="745" y="-147" type="line"/>
      <point x="485" y="-251" type="line"/>
    </contour>
    <contour>
      <point x="758" y="637" type="curve"/>
      <point x="484" y="749" type="line"/>
      <point x="550" y="817"/>
      <point x="574" y="863"/>
      <point x="574" y="932" type="curve" smooth="yes"/>
      <point x="574" y="993"/>
      <point x="527" y="1043"/>
      <point x="439" y="1043" type="curve" smooth="yes"/>
      <point x="343" y="1043"/>
      <point x="247" y="1009"/>
      <point x="164" y="965" type="curve"/>
      <point x="61" y="1234" type="line"/>
      <point x="176" y="1283"/>
      <point x="285" y="1312"/>
      <point x="455" y="1312" type="curve" smooth="yes"/>
      <point x="751" y="1312"/>
      <point x="889" y="1154"/>
      <point x="889" y="950" type="curve" smooth="yes"/>
      <point x="889" y="838"/>
      <point x="846" y="723"/>
    </contour>
    <contour>
      <point x="493" y="842" type="curve" smooth="yes"/>
      <point x="798" y="842"/>
      <point x="968" y="631"/>
      <point x="968" y="404" type="curve" smooth="yes"/>
      <point x="968" y="175"/>
      <point x="799" y="5"/>
      <point x="458" y="5" type="curve" smooth="yes"/>
      <point x="213" y="5"/>
      <point x="98" y="69"/>
      <point x="98" y="164" type="curve" smooth="yes"/>
      <point x="98" y="287"/>
      <point x="240" y="407"/>
      <point x="377" y="407" type="curve" smooth="yes"/>
      <point x="456" y="407"/>
      <point x="531" y="361"/>
      <point x="571" y="228" type="curve"/>
      <point x="281" y="283" type="line"/>
      <point x="352" y="272"/>
      <point x="419" y="274"/>
      <point x="462" y="274" type="curve" smooth="yes"/>
      <point x="574" y="274"/>
      <point x="650" y="341"/>
      <point x="650" y="417" type="curve" smooth="yes"/>
      <point x="650" y="492"/>
      <point x="603" y="556"/>
      <point x="488" y="556" type="curve" smooth="yes"/>
      <point x="400" y="556"/>
      <point x="327" y="537"/>
      <point x="257" y="510" type="curve"/>
      <point x="179" y="789" type="line"/>
      <point x="267" y="818"/>
      <point x="386" y="842"/>
    </contour>
  </outline>
</glyph>
<glyph name="fivedeva" format="1">
  <advance width="1271"/>
  <unicode hex="096B"/>
  <outline>
    <contour>
      <point x="423" y="669" type="curve" smooth="yes"/>
      <point x="423" y="550"/>
      <point x="501" y="474"/>
      <point x="606" y="474" type="curve" smooth="yes"/>
      <point x="694" y="474"/>
      <point x="768" y="508"/>
      <point x="875" y="596" type="curve"/>
      <point x="719" y="430" type="line"/>
      <point x="667" y="516"/>
      <point x="650" y="565"/>
      <point x="650" y="618" type="curve" smooth="yes"/>
      <point x="650" y="691"/>
      <point x="706" y="767"/>
      <point x="858" y="767" type="curve" smooth="yes"/>
      <point x="1062" y="767"/>
      <point x="1190" y="670"/>
      <point x="1190" y="566" type="curve" smooth="yes"/>
      <point x="1190" y="398"/>
      <point x="960" y="205"/>
      <point x="634" y="205" type="curve" smooth="yes"/>
      <point x="315" y="205"/>
      <point x="89" y="428"/>
      <point x="89" y="694" type="curve" smooth="yes"/>
      <point x="89" y="925"/>
      <point x="205" y="1156"/>
      <point x="446" y="1328" type="curve"/>
      <point x="758" y="1167" type="line"/>
      <point x="518" y="993"/>
      <point x="423" y="819"/>
    </contour>
    <contour>
      <point x="721" y="444" type="line"/>
      <point x="1002" y="560" type="line"/>
      <point x="1313" y="-72" type="line"/>
      <point x="1031" y="-190" type="line"/>
    </contour>
  </outline>
</glyph>
<glyph name="awdevaKSH" format="1">
  <advance width="2375"/>
  <unicode hex="0975"/>
  <outline>
    <contour>
      <point x="1939" y="1208" type="line"/>
      <point x="1939" y="1499" type="line"/>
      <point x="1939" y="1554"/>
      <point x="1913" y="1588"/>
      <point x="1818" y="1588" type="curve" smooth="yes"/>
      <point x="1761" y="1588"/>
      <point x="1713" y="1558"/>
      <point x="1602" y="1558" type="curve" smooth="yes"/>
      <point x="1471" y="1558"/>
      <point x="1382" y="1616"/>
      <point x="1301" y="1717" type="curve"/>
      <point x="1406" y="1876" type="line"/>
      <point x="1486" y="1799"/>
      <point x="1538" y="1775"/>
      <point x="1595" y="1775" type="curve" smooth="yes"/>
      <point x="1686" y="1775"/>
      <point x="1767" y="1821"/>
      <point x="1909" y="1821" type="curve" smooth="yes"/>
      <point x="2071" y="1821"/>
      <point x="2187" y="1712"/>
      <point x="2187" y="1536" type="curve" smooth="yes"/>
      <point x="2187" y="1208" type="line"/>
    </contour>
    <contour>
      <point x="1760" y="1160" type="line"/>
      <point x="1709" y="1283" type="line"/>
      <point x="1682" y="1346"/>
      <point x="1645" y="1383"/>
      <point x="1566" y="1383" type="curve" smooth="yes"/>
      <point x="1499" y="1383"/>
      <point x="1450" y="1355"/>
      <point x="1329" y="1355" type="curve" smooth="yes"/>
      <point x="1184" y="1355"/>
      <point x="1078" y="1421"/>
      <point x="983" y="1523" type="curve"/>
      <point x="1095" y="1671" type="line"/>
      <point x="1182" y="1593"/>
      <point x="1249" y="1566"/>
      <point x="1321" y="1566" type="curve" smooth="yes"/>
      <point x="1428" y="1566"/>
      <point x="1507" y="1608"/>
      <point x="1608" y="1608" type="curve" smooth="yes"/>
      <point x="1817" y="1608"/>
      <point x="1881" y="1543"/>
      <point x="1957" y="1330" type="curve" smooth="yes"/>
      <point x="2019" y="1160" type="line"/>
    </contour>
    <component base="aadeva"/>
  </outline>
</glyph>
<glyph name="zhadeva" format="1">
  <advance width="1686"/>
  <unicode hex="0979"/>
  <outline>
    <component base="nuktadeva" xScale="0.884443921883" yScale="0.884443921883" xOffset="1322" yOffset="20"/>
    <component base="nuktadeva" xScale="0.884443921883" yScale="0.884443921883" xOffset="1660" yOffset="125"/>
    <component base="jadeva"/>
    <component base="nuktadeva" xScale="0.884443921883" yScale="0.884443921883" xOffset="1007" yOffset="155"/>
    <contour>
      <point x="1150" y="1293" type="move" name="top"/>
    </contour>
  </outline>
</glyph>
<glyph name="quoteleft.deva" format="1">
  <advance width="787"/>
  <unicode hex="2018"/>
  <outline>
    <contour>
      <point x="153" y="789" type="line"/>
      <point x="140" y="809" type="line"/>
      <point x="200" y="1044"/>
      <point x="253" y="1212"/>
      <point x="299" y="1314" type="curve"/>
      <point x="549" y="1314" type="line"/>
      <point x="509" y="1127"/>
      <point x="480" y="952"/>
      <point x="461" y="789" type="curve"/>
    </contour>
  </outline>
</glyph>
<glyph name="anusvaradeva2" format="1">
  <advance width="0"/>
  <outline>
    <contour>
      <point x="-70" y="1758" type="curve" smooth="yes"/>
      <point x="43" y="1758"/>
      <point x="93" y="1681"/>
      <point x="93" y="1614" type="curve" smooth="yes"/>
      <point x="93" y="1547"/>
      <point x="43" y="1468"/>
      <point x="-70" y="1468" type="curve" smooth="yes"/>
      <point x="-178" y="1468"/>
      <point x="-234" y="1543"/>
      <point x="-234" y="1614" type="curve" smooth="yes"/>
      <point x="-234" y="1682"/>
      <point x="-180" y="1758"/>
    </contour>
    <contour>
      <point x="-539" y="1293" type="move" name="_top"/>
    </contour>
  </outline>
</glyph>
<glyph name="candrabindusmalldeva" format="1">
  <advance width="0"/>
  <outline>
    <contour>
      <point x="-366" y="1917" type="curve" smooth="yes"/>
      <point x="-269" y="1917"/>
      <point x="-228" y="1852"/>
      <point x="-228" y="1795" type="curve" smooth="yes"/>
      <point x="-228" y="1738"/>
      <point x="-269" y="1672"/>
      <point x="-366" y="1672" type="curve" smooth="yes"/>
      <point x="-456" y="1672"/>
      <point x="-504" y="1736"/>
      <point x="-504" y="1795" type="curve" smooth="yes"/>
      <point x="-504" y="1853"/>
      <point x="-458" y="1917"/>
    </contour>
    <contour>
      <point x="38" y="1546" type="line"/>
      <point x="-78" y="1420"/>
      <point x="-201" y="1360"/>
      <point x="-348" y="1360" type="curve" smooth="yes"/>
      <point x="-490" y="1360"/>
      <point x="-620" y="1418"/>
      <point x="-751" y="1545" type="curve"/>
      <point x="-649" y="1760" type="line"/>
      <point x="-536" y="1650"/>
      <point x="-465" y="1605"/>
      <point x="-357" y="1605" type="curve" smooth="yes"/>
      <point x="-248" y="1605"/>
      <point x="-173" y="1651"/>
      <point x="-81" y="1753" type="curve"/>
    </contour>
    <contour>
      <point x="-539" y="1293" type="move" name="_top"/>
    </contour>
  </outline>
</glyph>
<glyph name="chayadeva" format="1">
  <advance width="2968"/>
  <outline>
    <contour>
      <point x="2431" y="1104" type="line"/>
      <point x="2779" y="1104" type="line"/>
      <point x="2779" y="-84" type="line"/>
      <point x="2431" y="-84" type="line"/>
    </contour>
    <contour>
      <point x="1268" y="743" type="line"/>
      <point x="1252" y="969" type="line"/>
      <point x="1859" y="969" type="line"/>
      <point x="2102" y="969"/>
      <point x="2229" y="857"/>
      <point x="2229" y="712" type="curve" smooth="yes"/>
      <point x="2229" y="555"/>
      <point x="2101" y="436"/>
      <point x="1927" y="388" type="curve"/>
      <point x="1927" y="491" type="line"/>
      <point x="1991" y="405"/>
      <point x="2067" y="359"/>
      <point x="2152" y="359" type="curve" smooth="yes"/>
      <point x="2309" y="359"/>
      <point x="2420" y="439"/>
      <point x="2477" y="573" type="curve"/>
      <point x="2477" y="114" type="line"/>
      <point x="2420" y="93"/>
      <point x="2362" y="81"/>
      <point x="2268" y="81" type="curve" smooth="yes"/>
      <point x="1987" y="81"/>
      <point x="1734" y="268"/>
      <point x="1606" y="538" type="curve"/>
      <point x="1606" y="544" type="line"/>
      <point x="1834" y="581"/>
      <point x="1910" y="635"/>
      <point x="1910" y="681" type="curve" smooth="yes"/>
      <point x="1910" y="722"/>
      <point x="1882" y="743"/>
      <point x="1791" y="743" type="curve" smooth="yes"/>
    </contour>
    <contour>
      <point x="1492" y="1065" type="line"/>
      <point x="1492" y="1293" type="line"/>
      <point x="2998" y="1293" type="line"/>
      <point x="2998" y="1065" type="line"/>
    </contour>
    <component base="chaprehalfdeva"/>
    <contour>
      <point x="2431" y="1293" type="move" name="top"/>
    </contour>
  </outline>
</glyph>
<glyph name="dabhadeva" format="1">
  <advance width="1728"/>
  <outline>
    <contour>
      <point x="476" y="34" type="curve"/>
      <point x="557" y="-140" type="line"/>
      <point x="474" y="-189"/>
      <point x="409" y="-207"/>
      <point x="302" y="-207" type="curve" smooth="yes"/>
      <point x="97" y="-207"/>
      <point x="-48" y="-81"/>
      <point x="-48" y="85" type="curve" smooth="yes"/>
      <point x="-48" y="226"/>
      <point x="81" y="362"/>
      <point x="291" y="362" type="curve" smooth="yes"/>
      <point x="487" y="362"/>
      <point x="610" y="266"/>
      <point x="681" y="134" type="curve" smooth="yes"/>
      <point x="831" y="-147" type="line"/>
      <point x="782" y="-125" type="line"/>
      <point x="1278" y="133" type="line"/>
      <point x="1401" y="-95" type="line"/>
      <point x="890" y="-361" type="line"/>
      <point x="911" y="-294" type="line"/>
      <point x="960" y="-383" type="line"/>
      <point x="978" y="-417"/>
      <point x="988" y="-448"/>
      <point x="986" y="-476" type="curve" smooth="yes"/>
      <point x="982" y="-533"/>
      <point x="927" y="-569"/>
      <point x="822" y="-569" type="curve" smooth="yes"/>
      <point x="611" y="-569"/>
      <point x="432" y="-461"/>
      <point x="432" y="-370" type="curve" smooth="yes"/>
      <point x="432" y="-335"/>
      <point x="453" y="-299"/>
      <point x="491" y="-279" type="curve" smooth="yes"/>
      <point x="605" y="-216" type="line"/>
      <point x="576" y="-259" type="line"/>
      <point x="410" y="51" type="line"/>
      <point x="376" y="113"/>
      <point x="339" y="136"/>
      <point x="293" y="136" type="curve" smooth="yes"/>
      <point x="239" y="136"/>
      <point x="203" y="104"/>
      <point x="203" y="59" type="curve" smooth="yes"/>
      <point x="203" y="15"/>
      <point x="244" y="-14"/>
      <point x="302" y="-16" type="curve" smooth="yes"/>
      <point x="354" y="-18"/>
      <point x="417" y="-2"/>
    </contour>
    <contour>
      <point x="-30" y="1065" type="line"/>
      <point x="-30" y="1293" type="line"/>
      <point x="1758" y="1293" type="line"/>
      <point x="1758" y="1065" type="line"/>
    </contour>
    <contour>
      <point x="1185" y="162" type="line"/>
      <point x="1448" y="247" type="line"/>
      <point x="1733" y="-289" type="line"/>
      <point x="1483" y="-398" type="line"/>
    </contour>
    <contour>
      <point x="1177" y="51" type="curve" smooth="yes"/>
      <point x="825" y="51"/>
      <point x="576" y="240"/>
      <point x="576" y="511" type="curve" smooth="yes"/>
      <point x="576" y="737"/>
      <point x="729" y="908"/>
      <point x="1086" y="908" type="curve" smooth="yes"/>
      <point x="1230" y="908" type="line"/>
      <point x="1160" y="852" type="line"/>
      <point x="1160" y="1096" type="line"/>
      <point x="1510" y="1096" type="line"/>
      <point x="1510" y="666" type="line"/>
      <point x="1181" y="666" type="line"/>
      <point x="981" y="666"/>
      <point x="900" y="587"/>
      <point x="900" y="471" type="curve" smooth="yes"/>
      <point x="900" y="365"/>
      <point x="991" y="292"/>
      <point x="1115" y="292" type="curve" smooth="yes"/>
      <point x="1208" y="292"/>
      <point x="1254" y="294"/>
      <point x="1371" y="319" type="curve"/>
      <point x="1168" y="206" type="line"/>
      <point x="1134" y="258"/>
      <point x="1124" y="320"/>
      <point x="1124" y="369" type="curve" smooth="yes"/>
      <point x="1124" y="435"/>
      <point x="1165" y="510"/>
      <point x="1311" y="510" type="curve" smooth="yes"/>
      <point x="1507" y="510"/>
      <point x="1658" y="411"/>
      <point x="1658" y="291" type="curve" smooth="yes"/>
      <point x="1658" y="169"/>
      <point x="1496" y="51"/>
    </contour>
    <contour>
      <point x="1138" y="-490" type="move" name="btm"/>
    </contour>
    <contour>
      <point x="1161" y="1293" type="move" name="top"/>
    </contour>
  </outline>
</glyph>
<glyph name="ddaddadeva" format="1">
  <advance width="1261"/>
  <outline>
    <contour>
      <point x="642" y="185" type="line"/>
      <point x="981" y="185" type="line"/>
      <point x="981" y="-139" type="line"/>
      <point x="520" y="-139" type="line"/>
      <point x="446" y="-139"/>
      <point x="415" y="-166"/>
      <point x="415" y="-203" type="curve" smooth="yes"/>
      <point x="415" y="-237"/>
      <point x="442" y="-257"/>
      <point x="506" y="-279" type="curve"/>
      <point x="394" y="-263" type="line"/>
      <point x="483" y="-225"/>
      <point x="594" y="-199"/>
      <point x="718" y="-199" type="curve" smooth="yes"/>
      <point x="988" y="-199"/>
      <point x="1120" y="-308"/>
      <point x="1120" y="-463" type="curve" smooth="yes"/>
      <point x="1120" y="-623"/>
      <point x="998" y="-732"/>
      <point x="664" y="-732" type="curve" smooth="yes"/>
      <point x="465" y="-732"/>
      <point x="275" y="-685"/>
      <point x="72" y="-588" type="curve"/>
      <point x="127" y="-387" type="line"/>
      <point x="323" y="-496"/>
      <point x="482" y="-530"/>
      <point x="615" y="-530" type="curve" smooth="yes"/>
      <point x="767" y="-530"/>
      <point x="823" y="-500"/>
      <point x="823" y="-462" type="curve" smooth="yes"/>
      <point x="823" y="-425"/>
      <point x="782" y="-401"/>
      <point x="697" y="-401" type="curve" smooth="yes"/>
      <point x="611" y="-401"/>
      <point x="527" y="-422"/>
      <point x="459" y="-453" type="curve"/>
      <point x="451" y="-453" type="line"/>
      <point x="225" y="-367"/>
      <point x="127" y="-272"/>
      <point x="127" y="-149" type="curve" smooth="yes"/>
      <point x="127" y="-47"/>
      <point x="204" y="56"/>
      <point x="444" y="56" type="curve" smooth="yes"/>
      <point x="709" y="56" type="line"/>
      <point x="642" y="-10" type="line"/>
    </contour>
    <contour>
      <point x="663" y="1086" type="line"/>
      <point x="1012" y="1086" type="line"/>
      <point x="1012" y="747" type="line"/>
      <point x="531" y="747" type="line"/>
      <point x="453" y="747"/>
      <point x="422" y="719"/>
      <point x="422" y="682" type="curve" smooth="yes"/>
      <point x="422" y="647"/>
      <point x="450" y="626"/>
      <point x="514" y="604" type="curve"/>
      <point x="401" y="621" type="line"/>
      <point x="491" y="659"/>
      <point x="603" y="685"/>
      <point x="727" y="685" type="curve" smooth="yes"/>
      <point x="998" y="685"/>
      <point x="1150" y="566"/>
      <point x="1150" y="401" type="curve" smooth="yes"/>
      <point x="1150" y="239"/>
      <point x="1008" y="98"/>
      <point x="659" y="98" type="curve" smooth="yes"/>
      <point x="472" y="98"/>
      <point x="282" y="145"/>
      <point x="78" y="246" type="curve"/>
      <point x="134" y="477" type="line"/>
      <point x="330" y="367"/>
      <point x="490" y="323"/>
      <point x="623" y="323" type="curve" smooth="yes"/>
      <point x="777" y="323"/>
      <point x="834" y="362"/>
      <point x="834" y="402" type="curve" smooth="yes"/>
      <point x="834" y="440"/>
      <point x="792" y="464"/>
      <point x="707" y="464" type="curve" smooth="yes"/>
      <point x="619" y="464"/>
      <point x="535" y="443"/>
      <point x="466" y="412" type="curve"/>
      <point x="458" y="412" type="line"/>
      <point x="233" y="497"/>
      <point x="123" y="611"/>
      <point x="123" y="736" type="curve" smooth="yes"/>
      <point x="123" y="838"/>
      <point x="211" y="952"/>
      <point x="454" y="952" type="curve" smooth="yes"/>
      <point x="730" y="952" type="line"/>
      <point x="663" y="886" type="line"/>
    </contour>
    <contour>
      <point x="1291" y="1065" type="line"/>
      <point x="-30" y="1065" type="line"/>
      <point x="-30" y="1293" type="line"/>
      <point x="1291" y="1293" type="line"/>
    </contour>
    <contour>
      <point x="466" y="-713" type="move" name="btm"/>
    </contour>
    <contour>
      <point x="663" y="1293" type="move" name="top"/>
    </contour>
  </outline>
</glyph>
<glyph name="dhaprehalfdeva" format="1">
  <advance width="938"/>
  <outline>
    <contour>
      <point x="801" y="637" type="line"/>
      <point x="789" y="636" type="line"/>
      <point x="629" y="623"/>
      <point x="571" y="562"/>
      <point x="571" y="502" type="curve" smooth="yes"/>
      <point x="571" y="451"/>
      <point x="619" y="414"/>
      <point x="690" y="414" type="curve" smooth="yes"/>
      <point x="837" y="414"/>
      <point x="995" y="506"/>
      <point x="1115" y="663" type="curve"/>
      <point x="1287" y="410" type="line"/>
      <point x="1141" y="245"/>
      <point x="969" y="134"/>
      <point x="730" y="134" type="curve" smooth="yes"/>
      <point x="429" y="134"/>
      <point x="256" y="325"/>
      <point x="256" y="540" type="curve" smooth="yes"/>
      <point x="256" y="715"/>
      <point x="381" y="910"/>
      <point x="707" y="910" type="curve" smooth="yes"/>
      <point x="714" y="910" type="line"/>
    </contour>
    <contour>
      <point x="332" y="680" type="line"/>
      <point x="116" y="742"/>
      <point x="-4" y="877"/>
      <point x="-4" y="1048" type="curve" smooth="yes"/>
      <point x="-4" y="1207"/>
      <point x="134" y="1341"/>
      <point x="397" y="1341" type="curve" smooth="yes"/>
      <point x="498" y="1341"/>
      <point x="564" y="1331"/>
      <point x="624" y="1315" type="curve"/>
      <point x="605" y="1107" type="line"/>
      <point x="561" y="1115"/>
      <point x="534" y="1119"/>
      <point x="485" y="1119" type="curve" smooth="yes"/>
      <point x="400" y="1119"/>
      <point x="346" y="1067"/>
      <point x="346" y="1006" type="curve" smooth="yes"/>
      <point x="346" y="930"/>
      <point x="418" y="857"/>
      <point x="575" y="856" type="curve"/>
    </contour>
  </outline>
</glyph>
<glyph name="harvocalicdeva" format="1">
  <advance width="1320"/>
  <outline>
    <contour>
      <point x="1350" y="1065" type="line"/>
      <point x="-30" y="1065" type="line"/>
      <point x="-30" y="1293" type="line"/>
      <point x="1350" y="1293" type="line"/>
    </contour>
    <contour>
      <point x="688" y="1077" type="line"/>
      <point x="1036" y="1077" type="line"/>
      <point x="1036" y="707" type="line"/>
      <point x="521" y="707" type="line"/>
      <point x="425" y="707"/>
      <point x="384" y="667"/>
      <point x="384" y="616" type="curve" smooth="yes"/>
      <point x="384" y="563"/>
      <point x="430" y="531"/>
      <point x="526" y="509" type="curve"/>
      <point x="295" y="340" type="line"/>
      <point x="127" y="441"/>
      <point x="48" y="553"/>
      <point x="48" y="687" type="curve" smooth="yes"/>
      <point x="48" y="824"/>
      <point x="158" y="935"/>
      <point x="380" y="935" type="curve" smooth="yes"/>
      <point x="727" y="935" type="line"/>
      <point x="688" y="883" type="line"/>
    </contour>
    <contour>
      <point x="708" y="582" type="curve" smooth="yes"/>
      <point x="1053" y="582"/>
      <point x="1253" y="403"/>
      <point x="1253" y="227" type="curve"/>
      <point x="1253" y="178"/>
      <point x="1249" y="141"/>
      <point x="1244" y="107" type="curve"/>
      <point x="1243" y="107"/>
      <point x="1115" y="107"/>
      <point x="1114" y="107" type="curve" smooth="yes"/>
      <point x="1025" y="107"/>
      <point x="971" y="62"/>
      <point x="971" y="5" type="curve" smooth="yes"/>
      <point x="971" y="-40"/>
      <point x="1008" y="-68"/>
      <point x="1073" y="-68" type="curve" smooth="yes"/>
      <point x="1130" y="-68"/>
      <point x="1184" y="-55"/>
      <point x="1271" y="-26" type="curve"/>
      <point x="1306" y="-217" type="line"/>
      <point x="1191" y="-246"/>
      <point x="1143" y="-251"/>
      <point x="1059" y="-251" type="curve" smooth="yes"/>
      <point x="870" y="-251"/>
      <point x="682" y="-155"/>
      <point x="682" y="26" type="curve" smooth="yes"/>
      <point x="682" y="178"/>
      <point x="831" y="263"/>
      <point x="1016" y="263" type="curve" smooth="yes"/>
      <point x="1021" y="263"/>
      <point x="1029" y="263"/>
      <point x="1034" y="263" type="curve"/>
      <point x="969" y="229" type="line"/>
      <point x="969" y="291"/>
      <point x="904" y="341"/>
      <point x="730" y="341" type="curve" smooth="yes"/>
      <point x="562" y="341"/>
      <point x="463" y="237"/>
      <point x="463" y="108" type="curve" smooth="yes"/>
      <point x="463" y="-21"/>
      <point x="531" y="-135"/>
      <point x="787" y="-303" type="curve"/>
      <point x="620" y="-472" type="line"/>
      <point x="319" y="-296"/>
      <point x="161" y="-82"/>
      <point x="161" y="152" type="curve" smooth="yes"/>
      <point x="161" y="382"/>
      <point x="365" y="582"/>
    </contour>
  </outline>
</glyph>
<glyph name="haudeva" format="1">
  <advance width="1256"/>
  <outline>
    <contour>
      <point x="711" y="1077" type="line"/>
      <point x="1059" y="1077" type="line"/>
      <point x="1059" y="707" type="line"/>
      <point x="521" y="707" type="line"/>
      <point x="425" y="707"/>
      <point x="384" y="667"/>
      <point x="384" y="616" type="curve" smooth="yes"/>
      <point x="384" y="563"/>
      <point x="430" y="531"/>
      <point x="526" y="509" type="curve"/>
      <point x="295" y="340" type="line"/>
      <point x="127" y="441"/>
      <point x="48" y="553"/>
      <point x="48" y="687" type="curve" smooth="yes"/>
      <point x="48" y="824"/>
      <point x="158" y="935"/>
      <point x="380" y="935" type="curve" smooth="yes"/>
      <point x="750" y="935" type="line"/>
      <point x="711" y="883" type="line"/>
    </contour>
    <contour>
      <point x="1286" y="1065" type="line"/>
      <point x="-30" y="1065" type="line"/>
      <point x="-30" y="1293" type="line"/>
      <point x="1286" y="1293" type="line"/>
    </contour>
    <contour>
      <point x="488" y="140" type="curve" smooth="yes"/>
      <point x="488" y="13"/>
      <point x="604" y="-66"/>
      <point x="921" y="-115" type="curve"/>
      <point x="831" y="-342" type="line"/>
      <point x="403" y="-271"/>
      <point x="162" y="-104"/>
      <point x="162" y="180" type="curve" smooth="yes"/>
      <point x="162" y="399"/>
      <point x="339" y="572"/>
      <point x="673" y="572" type="curve" smooth="yes"/>
      <point x="984" y="572"/>
      <point x="1168" y="427"/>
      <point x="1168" y="226" type="curve" smooth="yes"/>
      <point x="1168" y="144"/>
      <point x="1150" y="92"/>
      <point x="1115" y="19" type="curve"/>
      <point x="834" y="67" type="line"/>
      <point x="857" y="114"/>
      <point x="868" y="148"/>
      <point x="868" y="198" type="curve" smooth="yes"/>
      <point x="868" y="262"/>
      <point x="817" y="319"/>
      <point x="693" y="319" type="curve" smooth="yes"/>
      <point x="565" y="319"/>
      <point x="488" y="231"/>
    </contour>
    <component base="uvowelsigndeva" xOffset="1229" yOffset="-137"/>
  </outline>
</glyph>
<glyph name="hayadeva" format="1">
  <advance width="1968"/>
  <outline>
    <contour>
      <point x="443" y="87" type="curve" smooth="yes"/>
      <point x="443" y="-41"/>
      <point x="504" y="-152"/>
      <point x="761" y="-357" type="curve"/>
      <point x="558" y="-509" type="line"/>
      <point x="267" y="-282"/>
      <point x="154" y="-71"/>
      <point x="154" y="143" type="curve" smooth="yes"/>
      <point x="154" y="369"/>
      <point x="318" y="580"/>
      <point x="705" y="580" type="curve" smooth="yes"/>
      <point x="1054" y="580"/>
      <point x="1199" y="399"/>
      <point x="1199" y="265" type="curve" smooth="yes"/>
      <point x="1199" y="142"/>
      <point x="1115" y="59"/>
      <point x="909" y="-1" type="curve"/>
      <point x="912" y="85" type="line"/>
      <point x="975" y="-4"/>
      <point x="1037" y="-36"/>
      <point x="1152" y="-36" type="curve" smooth="yes"/>
      <point x="1296" y="-36"/>
      <point x="1422" y="49"/>
      <point x="1478" y="179" type="curve"/>
      <point x="1478" y="-281" type="line"/>
      <point x="1421" y="-304"/>
      <point x="1371" y="-313"/>
      <point x="1259" y="-313" type="curve" smooth="yes"/>
      <point x="969" y="-313"/>
      <point x="708" y="-132"/>
      <point x="591" y="139" type="curve"/>
      <point x="591" y="145" type="line"/>
      <point x="806" y="168"/>
      <point x="888" y="202"/>
      <point x="888" y="254" type="curve" smooth="yes"/>
      <point x="888" y="301"/>
      <point x="846" y="342"/>
      <point x="717" y="342" type="curve" smooth="yes"/>
      <point x="546" y="342"/>
      <point x="443" y="237"/>
    </contour>
    <contour>
      <point x="1998" y="1065" type="line"/>
      <point x="-30" y="1065" type="line"/>
      <point x="-30" y="1293" type="line"/>
      <point x="1998" y="1293" type="line"/>
    </contour>
    <contour>
      <point x="806" y="1077" type="line"/>
      <point x="1154" y="1077" type="line"/>
      <point x="1154" y="707" type="line"/>
      <point x="521" y="707" type="line"/>
      <point x="425" y="707"/>
      <point x="384" y="667"/>
      <point x="384" y="616" type="curve" smooth="yes"/>
      <point x="384" y="563"/>
      <point x="430" y="531"/>
      <point x="526" y="509" type="curve"/>
      <point x="295" y="340" type="line"/>
      <point x="127" y="441"/>
      <point x="48" y="553"/>
      <point x="48" y="687" type="curve" smooth="yes"/>
      <point x="48" y="824"/>
      <point x="158" y="935"/>
      <point x="380" y="935" type="curve" smooth="yes"/>
      <point x="845" y="935" type="line"/>
      <point x="806" y="883" type="line"/>
    </contour>
    <contour>
      <point x="1432" y="1103" type="line"/>
      <point x="1781" y="1103" type="line"/>
      <point x="1781" y="-494" type="line"/>
      <point x="1432" y="-494" type="line"/>
    </contour>
    <contour>
      <point x="1432" y="-494" type="move" name="btm"/>
    </contour>
    <contour>
      <point x="1432" y="1293" type="move" name="top"/>
    </contour>
  </outline>
</glyph>
<glyph name="iivowelsign3deva" format="1">
  <advance width="676"/>
  <outline>
    <contour>
      <point x="93" y="1239" type="line"/>
      <point x="-142" y="1435"/>
      <point x="-370" y="1528"/>
      <point x="-569" y="1528" type="curve" smooth="yes"/>
      <point x="-703" y="1528"/>
      <point x="-762" y="1454"/>
      <point x="-762" y="1380" type="curve" smooth="yes"/>
      <point x="-762" y="1326"/>
      <point x="-744" y="1285"/>
      <point x="-722" y="1251" type="curve"/>
      <point x="-1057" y="1251" type="line"/>
      <point x="-1084" y="1326"/>
      <point x="-1096" y="1387"/>
      <point x="-1096" y="1459" type="curve" smooth="yes"/>
      <point x="-1096" y="1644"/>
      <point x="-958" y="1820"/>
      <point x="-633" y="1820" type="curve" smooth="yes"/>
      <point x="-258" y="1820"/>
      <point x="137" y="1636"/>
      <point x="509" y="1239" type="curve"/>
    </contour>
    <component base="aavowelsigndeva"/>
  </outline>
</glyph>
<glyph name="ivowelsign07deva" format="1">
  <advance width="676"/>
  <outline>
    <contour>
      <point x="139" y="1254" type="line"/>
      <point x="139" y="1339" type="line"/>
      <point x="139" y="1599"/>
      <point x="307" y="1823"/>
      <point x="928" y="1823" type="curve" smooth="yes"/>
      <point x="1414" y="1823"/>
      <point x="2048" y="1763"/>
      <point x="2574" y="1676" type="curve"/>
      <point x="2525" y="1429" type="line"/>
      <point x="2015" y="1502"/>
      <point x="1350" y="1543"/>
      <point x="995" y="1542" type="curve" smooth="yes"/>
      <point x="571" y="1541"/>
      <point x="488" y="1428"/>
      <point x="488" y="1312" type="curve" smooth="yes"/>
      <point x="488" y="1254" type="line"/>
    </contour>
    <component base="aavowelsigndeva"/>
  </outline>
</glyph>
<glyph name="jajadeva" format="1">
  <advance width="2410"/>
  <outline>
    <contour>
      <point x="-30" y="1065" type="line"/>
      <point x="-30" y="1293" type="line"/>
      <point x="1194" y="1293" type="line"/>
      <point x="1194" y="1065" type="line"/>
    </contour>
    <contour>
      <point x="775" y="624" type="line"/>
      <point x="809" y="709" type="line"/>
      <point x="917" y="640"/>
      <point x="989" y="533"/>
      <point x="989" y="369" type="curve" smooth="yes"/>
      <point x="989" y="188"/>
      <point x="851" y="42"/>
      <point x="629" y="42" type="curve" smooth="yes"/>
      <point x="391" y="42"/>
      <point x="178" y="180"/>
      <point x="8" y="417" type="curve"/>
      <point x="166" y="648" type="line"/>
      <point x="353" y="405"/>
      <point x="461" y="344"/>
      <point x="552" y="344" type="curve" smooth="yes"/>
      <point x="629" y="344"/>
      <point x="677" y="391"/>
      <point x="677" y="461" type="curve" smooth="yes"/>
      <point x="677" y="548"/>
      <point x="607" y="629"/>
      <point x="441" y="668" type="curve"/>
      <point x="441" y="908" type="line"/>
      <point x="1341" y="908" type="line"/>
      <point x="1341" y="624" type="line"/>
    </contour>
    <component base="jadeva" xOffset="724"/>
    <contour>
      <point x="1874" y="1293" type="move" name="top"/>
    </contour>
  </outline>
</glyph>
<glyph name="jasadeva" format="1">
  <advance width="2668"/>
  <outline>
    <contour>
      <point x="773" y="600" type="line"/>
      <point x="808" y="686" type="line"/>
      <point x="918" y="618"/>
      <point x="987" y="511"/>
      <point x="987" y="366" type="curve" smooth="yes"/>
      <point x="987" y="185"/>
      <point x="849" y="39"/>
      <point x="627" y="39" type="curve" smooth="yes"/>
      <point x="399" y="39"/>
      <point x="190" y="173"/>
      <point x="11" y="419" type="curve"/>
      <point x="165" y="645" type="line"/>
      <point x="352" y="400"/>
      <point x="464" y="335"/>
      <point x="556" y="335" type="curve" smooth="yes"/>
      <point x="632" y="335"/>
      <point x="681" y="382"/>
      <point x="681" y="452" type="curve" smooth="yes"/>
      <point x="681" y="531"/>
      <point x="615" y="605"/>
      <point x="440" y="644" type="curve"/>
      <point x="440" y="884" type="line"/>
      <point x="1229" y="884" type="line"/>
      <point x="1182" y="600" type="line"/>
    </contour>
    <contour>
      <point x="-30" y="1065" type="line"/>
      <point x="-30" y="1293" type="line"/>
      <point x="1222" y="1293" type="line"/>
      <point x="1222" y="1065" type="line"/>
    </contour>
    <component base="sadeva" xOffset="1059"/>
  </outline>
</glyph>
<glyph name="jathadeva" format="1">
  <advance width="2466"/>
  <outline>
    <contour>
      <point x="772" y="520" type="line"/>
      <point x="806" y="604" type="line"/>
      <point x="914" y="537"/>
      <point x="986" y="430"/>
      <point x="986" y="266" type="curve" smooth="yes"/>
      <point x="986" y="85"/>
      <point x="848" y="-60"/>
      <point x="626" y="-60" type="curve" smooth="yes"/>
      <point x="398" y="-60"/>
      <point x="189" y="73"/>
      <point x="10" y="319" type="curve"/>
      <point x="163" y="545" type="line"/>
      <point x="350" y="301"/>
      <point x="463" y="235"/>
      <point x="554" y="235" type="curve" smooth="yes"/>
      <point x="631" y="235"/>
      <point x="679" y="282"/>
      <point x="679" y="352" type="curve" smooth="yes"/>
      <point x="679" y="425"/>
      <point x="614" y="525"/>
      <point x="438" y="564" type="curve"/>
      <point x="438" y="803" type="line"/>
      <point x="1377" y="803" type="line"/>
      <point x="1376" y="520" type="line"/>
    </contour>
    <contour>
      <point x="-30" y="1065" type="line"/>
      <point x="-30" y="1293" type="line"/>
      <point x="1100" y="1293" type="line"/>
      <point x="1100" y="1065" type="line"/>
    </contour>
    <component base="thadeva" xOffset="962"/>
  </outline>
</glyph>
<glyph name="jayadeva" format="1">
  <advance width="2521"/>
  <outline>
    <contour>
      <point x="773" y="593" type="line"/>
      <point x="808" y="679" type="line"/>
      <point x="918" y="612"/>
      <point x="987" y="505"/>
      <point x="987" y="360" type="curve" smooth="yes"/>
      <point x="987" y="178"/>
      <point x="849" y="33"/>
      <point x="627" y="33" type="curve" smooth="yes"/>
      <point x="399" y="33"/>
      <point x="190" y="167"/>
      <point x="11" y="413" type="curve"/>
      <point x="165" y="639" type="line"/>
      <point x="352" y="394"/>
      <point x="464" y="329"/>
      <point x="556" y="329" type="curve" smooth="yes"/>
      <point x="632" y="329"/>
      <point x="681" y="375"/>
      <point x="681" y="446" type="curve" smooth="yes"/>
      <point x="681" y="525"/>
      <point x="615" y="598"/>
      <point x="440" y="637" type="curve"/>
      <point x="440" y="876" type="line"/>
      <point x="1457" y="876" type="line"/>
      <point x="1410" y="593" type="line"/>
    </contour>
    <contour>
      <point x="-30" y="1065" type="line"/>
      <point x="-30" y="1293" type="line"/>
      <point x="1223" y="1293" type="line"/>
      <point x="1223" y="1065" type="line"/>
    </contour>
    <component base="yadeva" xOffset="1099"/>
  </outline>
</glyph>
<glyph name="jhaprehalfdevaNEP" format="1">
  <advance width="1636"/>
  <outline>
    <contour>
      <point x="1263" y="348" type="curve"/>
      <point x="1254" y="819" type="line"/>
      <point x="1297" y="833"/>
      <point x="1372" y="847"/>
      <point x="1486" y="847" type="curve" smooth="yes"/>
      <point x="1678" y="847"/>
      <point x="1841" y="785"/>
      <point x="1975" y="655" type="curve"/>
      <point x="1919" y="426" type="line"/>
      <point x="1794" y="531"/>
      <point x="1675" y="568"/>
      <point x="1565" y="568" type="curve" smooth="yes"/>
      <point x="1429" y="568"/>
      <point x="1339" y="494"/>
    </contour>
    <contour>
      <point x="1281" y="1065" type="line"/>
      <point x="1281" y="1293" type="line"/>
      <point x="1666" y="1293" type="line"/>
      <point x="1666" y="1065" type="line"/>
    </contour>
    <component base="bhadeva"/>
  </outline>
</glyph>
<glyph name="jharaprehalfdevaNEP" format="1">
  <advance width="1636"/>
  <outline>
    <contour>
      <point x="1263" y="348" type="curve"/>
      <point x="1254" y="819" type="line"/>
      <point x="1297" y="832"/>
      <point x="1373" y="847"/>
      <point x="1477" y="847" type="curve" smooth="yes"/>
      <point x="1643" y="847"/>
      <point x="1755" y="799"/>
      <point x="1886" y="694" type="curve"/>
      <point x="1825" y="461" type="line"/>
      <point x="1732" y="542"/>
      <point x="1662" y="568"/>
      <point x="1554" y="568" type="curve" smooth="yes"/>
      <point x="1431" y="568"/>
      <point x="1338" y="492"/>
    </contour>
    <contour>
      <point x="1272" y="1065" type="line"/>
      <point x="1272" y="1293" type="line"/>
      <point x="1666" y="1293" type="line"/>
      <point x="1666" y="1065" type="line"/>
    </contour>
    <component base="bharadeva"/>
  </outline>
</glyph>
<glyph name="kassaradeva" format="1">
  <advance width="1841"/>
  <outline>
    <contour>
      <point x="476" y="120" type="line"/>
      <point x="712" y="196" type="line"/>
      <point x="852" y="-118" type="line"/>
      <point x="600" y="-198" type="line"/>
    </contour>
    <contour>
      <point x="666" y="582" type="curve" smooth="yes"/>
      <point x="384" y="461"/>
      <point x="347" y="406"/>
      <point x="347" y="341" type="curve" smooth="yes"/>
      <point x="347" y="274"/>
      <point x="385" y="237"/>
      <point x="456" y="237" type="curve" smooth="yes"/>
      <point x="500" y="237"/>
      <point x="507" y="239"/>
      <point x="580" y="261" type="curve"/>
      <point x="460" y="158" type="line"/>
      <point x="443" y="203"/>
      <point x="435" y="231"/>
      <point x="435" y="277" type="curve" smooth="yes"/>
      <point x="435" y="334"/>
      <point x="512" y="397"/>
      <point x="604" y="397" type="curve" smooth="yes"/>
      <point x="768" y="397"/>
      <point x="871" y="309"/>
      <point x="871" y="218" type="curve" smooth="yes"/>
      <point x="871" y="123"/>
      <point x="711" y="16"/>
      <point x="486" y="16" type="curve" smooth="yes"/>
      <point x="237" y="16"/>
      <point x="33" y="134"/>
      <point x="33" y="371" type="curve" smooth="yes"/>
      <point x="33" y="516"/>
      <point x="135" y="649"/>
      <point x="462" y="774" type="curve" smooth="yes"/>
      <point x="707" y="869"/>
      <point x="748" y="924"/>
      <point x="748" y="991" type="curve" smooth="yes"/>
      <point x="748" y="1044"/>
      <point x="710" y="1078"/>
      <point x="655" y="1078" type="curve" smooth="yes"/>
      <point x="595" y="1078"/>
      <point x="559" y="1037"/>
      <point x="559" y="977" type="curve" smooth="yes"/>
      <point x="559" y="865"/>
      <point x="816" y="731"/>
      <point x="1415" y="732" type="curve"/>
      <point x="1413" y="469" type="line"/>
      <point x="633" y="469"/>
      <point x="265" y="724"/>
      <point x="265" y="1029" type="curve" smooth="yes"/>
      <point x="265" y="1193"/>
      <point x="387" y="1322"/>
      <point x="625" y="1322" type="curve" smooth="yes"/>
      <point x="893" y="1322"/>
      <point x="1022" y="1167"/>
      <point x="1022" y="1000" type="curve" smooth="yes"/>
      <point x="1022" y="831"/>
      <point x="918" y="690"/>
    </contour>
    <contour>
      <point x="1424" y="501" type="line"/>
      <point x="1039" y="29" type="line"/>
      <point x="808" y="196" type="line"/>
      <point x="1197" y="652" type="line"/>
    </contour>
    <contour>
      <point x="1304" y="1104" type="line"/>
      <point x="1652" y="1104" type="line"/>
      <point x="1652" y="0" type="line"/>
      <point x="1304" y="0" type="line"/>
    </contour>
    <contour>
      <point x="1871" y="1065" type="line"/>
      <point x="1186" y="1065" type="line"/>
      <point x="1186" y="1293" type="line"/>
      <point x="1871" y="1293" type="line"/>
    </contour>
    <contour>
      <point x="1304" y="1293" type="move" name="top"/>
    </contour>
  </outline>
</glyph>
<glyph name="kassaraprehalfdeva" format="1">
  <advance width="1210"/>
  <outline>
    <contour>
      <point x="476" y="120" type="line"/>
      <point x="712" y="196" type="line"/>
      <point x="852" y="-118" type="line"/>
      <point x="600" y="-198" type="line"/>
    </contour>
    <contour>
      <point x="666" y="582" type="curve" smooth="yes"/>
      <point x="384" y="461"/>
      <point x="347" y="406"/>
      <point x="347" y="341" type="curve" smooth="yes"/>
      <point x="347" y="274"/>
      <point x="385" y="237"/>
      <point x="456" y="237" type="curve" smooth="yes"/>
      <point x="500" y="237"/>
      <point x="507" y="239"/>
      <point x="580" y="261" type="curve"/>
      <point x="460" y="158" type="line"/>
      <point x="443" y="203"/>
      <point x="435" y="231"/>
      <point x="435" y="277" type="curve" smooth="yes"/>
      <point x="435" y="334"/>
      <point x="512" y="397"/>
      <point x="604" y="397" type="curve" smooth="yes"/>
      <point x="768" y="397"/>
      <point x="871" y="309"/>
      <point x="871" y="218" type="curve" smooth="yes"/>
      <point x="871" y="123"/>
      <point x="711" y="16"/>
      <point x="486" y="16" type="curve" smooth="yes"/>
      <point x="237" y="16"/>
      <point x="33" y="134"/>
      <point x="33" y="371" type="curve" smooth="yes"/>
      <point x="33" y="515"/>
      <point x="135" y="649"/>
      <point x="462" y="774" type="curve" smooth="yes"/>
      <point x="707" y="869"/>
      <point x="748" y="924"/>
      <point x="748" y="991" type="curve" smooth="yes"/>
      <point x="748" y="1040"/>
      <point x="712" y="1076"/>
      <point x="657" y="1076" type="curve" smooth="yes"/>
      <point x="597" y="1076"/>
      <point x="564" y="1040"/>
      <point x="564" y="980" type="curve" smooth="yes"/>
      <point x="564" y="880"/>
      <point x="829" y="731"/>
      <point x="1366" y="727" type="curve"/>
      <point x="1412" y="465" type="line"/>
      <point x="668" y="473"/>
      <point x="262" y="719"/>
      <point x="262" y="1029" type="curve" smooth="yes"/>
      <point x="262" y="1192"/>
      <point x="390" y="1325"/>
      <point x="627" y="1325" type="curve" smooth="yes"/>
      <point x="896" y="1325"/>
      <point x="1028" y="1157"/>
      <point x="1028" y="990" type="curve" smooth="yes"/>
      <point x="1028" y="821"/>
      <point x="918" y="690"/>
    </contour>
    <contour>
      <point x="1412" y="465" type="line"/>
      <point x="1037" y="30" type="line"/>
      <point x="807" y="196" type="line"/>
      <point x="1201" y="638" type="line"/>
    </contour>
  </outline>
</glyph>
<glyph name="ladevaMAR" format="1">
  <advance width="1672"/>
  <outline>
    <contour>
      <point x="1037" y="635" type="curve"/>
      <point x="833" y="466" type="line"/>
      <point x="744" y="570"/>
      <point x="665" y="618"/>
      <point x="570" y="618" type="curve" smooth="yes"/>
      <point x="454" y="618"/>
      <point x="387" y="532"/>
      <point x="387" y="436" type="curve" smooth="yes"/>
      <point x="387" y="341"/>
      <point x="444" y="253"/>
      <point x="598" y="107" type="curve"/>
      <point x="354" y="-22" type="line"/>
      <point x="175" y="140"/>
      <point x="70" y="321"/>
      <point x="70" y="510" type="curve" smooth="yes"/>
      <point x="70" y="740"/>
      <point x="233" y="908"/>
      <point x="468" y="908" type="curve" smooth="yes"/>
      <point x="687" y="908"/>
      <point x="837" y="830"/>
    </contour>
    <contour>
      <point x="628" y="349" type="line"/>
      <point x="693" y="647"/>
      <point x="843" y="893"/>
      <point x="1149" y="893" type="curve" smooth="yes"/>
      <point x="1418" y="893"/>
      <point x="1591" y="715"/>
      <point x="1591" y="486" type="curve" smooth="yes"/>
      <point x="1591" y="316"/>
      <point x="1500" y="126"/>
      <point x="1348" y="-20" type="curve"/>
      <point x="1076" y="119" type="line"/>
      <point x="1214" y="257"/>
      <point x="1282" y="382"/>
      <point x="1282" y="498" type="curve" smooth="yes"/>
      <point x="1282" y="565"/>
      <point x="1235" y="604"/>
      <point x="1172" y="604" type="curve" smooth="yes"/>
      <point x="1075" y="604"/>
      <point x="972" y="485"/>
      <point x="924" y="245" type="curve"/>
    </contour>
    <contour>
      <point x="1014" y="1104" type="line"/>
      <point x="1363" y="1104" type="line"/>
      <point x="1363" y="813" type="line"/>
      <point x="1014" y="813" type="line"/>
    </contour>
    <contour>
      <point x="-30" y="1065" type="line"/>
      <point x="-30" y="1293" type="line"/>
      <point x="1702" y="1293" type="line"/>
      <point x="1702" y="1065" type="line"/>
    </contour>
    <contour>
      <point x="684" y="-16" type="move" name="btm"/>
    </contour>
    <contour>
      <point x="1014" y="1293" type="move" name="top"/>
    </contour>
  </outline>
</glyph>
<glyph name="laraprehalfdeva" format="1">
  <advance width="1111"/>
  <outline>
    <contour>
      <point x="-30" y="1065" type="line"/>
      <point x="-30" y="1293" type="line"/>
      <point x="1141" y="1293" type="line"/>
      <point x="1141" y="1065" type="line"/>
    </contour>
    <contour>
      <point x="1027" y="621" type="curve"/>
      <point x="815" y="452" type="line"/>
      <point x="736" y="568"/>
      <point x="654" y="618"/>
      <point x="570" y="618" type="curve" smooth="yes"/>
      <point x="449" y="618"/>
      <point x="384" y="539"/>
      <point x="384" y="439" type="curve" smooth="yes"/>
      <point x="384" y="325"/>
      <point x="451" y="231"/>
      <point x="555" y="116" type="curve"/>
      <point x="321" y="-14" type="line"/>
      <point x="192" y="116"/>
      <point x="70" y="322"/>
      <point x="70" y="510" type="curve" smooth="yes"/>
      <point x="70" y="740"/>
      <point x="233" y="908"/>
      <point x="493" y="908" type="curve" smooth="yes"/>
      <point x="710" y="908"/>
      <point x="894" y="807"/>
    </contour>
    <contour>
      <point x="1347" y="850" type="line"/>
      <point x="1421" y="548" type="line"/>
      <point x="754" y="176" type="line"/>
      <point x="566" y="403" type="line"/>
    </contour>
    <contour>
      <point x="1518" y="228" type="line"/>
      <point x="995" y="-167" type="line"/>
      <point x="816" y="19" type="line"/>
      <point x="1348" y="435" type="line"/>
    </contour>
  </outline>
</glyph>
<glyph name="ngamadeva" format="1">
  <advance width="1518"/>
  <outline>
    <contour>
      <point x="761" y="246" type="line"/>
      <point x="1062" y="246" type="line"/>
      <point x="1062" y="-610" type="line"/>
      <point x="761" y="-610" type="line"/>
    </contour>
    <contour>
      <point x="38" y="-185" type="curve" smooth="yes"/>
      <point x="38" y="-124"/>
      <point x="82" y="-84"/>
      <point x="159" y="-84" type="curve" smooth="yes"/>
      <point x="247" y="-84" type="line"/>
      <point x="211" y="-113" type="line"/>
      <point x="211" y="245" type="line"/>
      <point x="511" y="245" type="line"/>
      <point x="511" y="-126" type="line"/>
      <point x="479" y="-83" type="line"/>
      <point x="809" y="-83" type="line"/>
      <point x="809" y="-329" type="line"/>
      <point x="462" y="-329" type="line"/>
      <point x="511" y="-280" type="line"/>
      <point x="511" y="-381" type="line"/>
      <point x="511" y="-470"/>
      <point x="477" y="-524"/>
      <point x="399" y="-524" type="curve" smooth="yes"/>
      <point x="314" y="-524"/>
      <point x="225" y="-463"/>
      <point x="152" y="-390" type="curve" smooth="yes"/>
      <point x="82" y="-320"/>
      <point x="38" y="-250"/>
    </contour>
    <contour>
      <point x="690" y="1086" type="line"/>
      <point x="1039" y="1086" type="line"/>
      <point x="1039" y="725" type="line"/>
      <point x="531" y="725" type="line"/>
      <point x="454" y="725"/>
      <point x="427" y="699"/>
      <point x="427" y="661" type="curve" smooth="yes"/>
      <point x="427" y="626"/>
      <point x="450" y="607"/>
      <point x="515" y="581" type="curve"/>
      <point x="402" y="598" type="line"/>
      <point x="491" y="635"/>
      <point x="602" y="661"/>
      <point x="727" y="661" type="curve" smooth="yes"/>
      <point x="997" y="661"/>
      <point x="1150" y="541"/>
      <point x="1150" y="365" type="curve" smooth="yes"/>
      <point x="1150" y="203"/>
      <point x="1005" y="55"/>
      <point x="659" y="55" type="curve" smooth="yes"/>
      <point x="472" y="55"/>
      <point x="297" y="95"/>
      <point x="76" y="197" type="curve"/>
      <point x="136" y="444" type="line"/>
      <point x="331" y="332"/>
      <point x="490" y="284"/>
      <point x="623" y="284" type="curve" smooth="yes"/>
      <point x="778" y="284"/>
      <point x="834" y="324"/>
      <point x="834" y="366" type="curve" smooth="yes"/>
      <point x="834" y="402"/>
      <point x="791" y="429"/>
      <point x="706" y="429" type="curve" smooth="yes"/>
      <point x="618" y="429"/>
      <point x="535" y="408"/>
      <point x="467" y="378" type="curve"/>
      <point x="460" y="378" type="line"/>
      <point x="223" y="458"/>
      <point x="124" y="577"/>
      <point x="124" y="713" type="curve" smooth="yes"/>
      <point x="124" y="833"/>
      <point x="211" y="948"/>
      <point x="454" y="948" type="curve" smooth="yes"/>
      <point x="758" y="948" type="line"/>
      <point x="690" y="882" type="line"/>
    </contour>
    <contour>
      <point x="1269" y="817" type="curve" smooth="yes"/>
      <point x="1401" y="817"/>
      <point x="1444" y="736"/>
      <point x="1444" y="672" type="curve" smooth="yes"/>
      <point x="1444" y="609"/>
      <point x="1393" y="528"/>
      <point x="1269" y="528" type="curve" smooth="yes"/>
      <point x="1136" y="528"/>
      <point x="1090" y="610"/>
      <point x="1090" y="672" type="curve" smooth="yes"/>
      <point x="1090" y="735"/>
      <point x="1139" y="817"/>
    </contour>
    <contour>
      <point x="1548" y="1065" type="line"/>
      <point x="-30" y="1065" type="line"/>
      <point x="-30" y="1293" type="line"/>
      <point x="1548" y="1293" type="line"/>
    </contour>
    <contour>
      <point x="449" y="-705" type="move" name="btm"/>
    </contour>
    <contour>
      <point x="690" y="1293" type="move" name="top"/>
    </contour>
  </outline>
</glyph>
<glyph name="nnaprehalfdeva" format="1">
  <advance width="1173"/>
  <outline>
    <contour>
      <point x="711" y="1086" type="line"/>
      <point x="1060" y="1086" type="line"/>
      <point x="1060" y="730" type="line"/>
      <point x="1060" y="451"/>
      <point x="916" y="265"/>
      <point x="602" y="265" type="curve" smooth="yes"/>
      <point x="279" y="265"/>
      <point x="112" y="467"/>
      <point x="112" y="728" type="curve" smooth="yes"/>
      <point x="112" y="1086" type="line"/>
      <point x="461" y="1086" type="line"/>
      <point x="461" y="661" type="line"/>
      <point x="461" y="572"/>
      <point x="506" y="516"/>
      <point x="582" y="516" type="curve" smooth="yes"/>
      <point x="662" y="516"/>
      <point x="711" y="573"/>
      <point x="711" y="695" type="curve" smooth="yes"/>
    </contour>
    <contour>
      <point x="-30" y="1065" type="line"/>
      <point x="-30" y="1293" type="line"/>
      <point x="1203" y="1293" type="line"/>
      <point x="1203" y="1065" type="line"/>
    </contour>
  </outline>
</glyph>
<glyph name="rephanusvaradeva" format="1">
  <advance width="-1"/>
  <outline>
    <contour>
      <point x="-125" y="1561" type="curve" smooth="yes"/>
      <point x="-32" y="1561"/>
      <point x="8" y="1503"/>
      <point x="8" y="1451" type="curve" smooth="yes"/>
      <point x="8" y="1402"/>
      <point x="-32" y="1342"/>
      <point x="-125" y="1342" type="curve" smooth="yes"/>
      <point x="-212" y="1342"/>
      <point x="-257" y="1399"/>
      <point x="-257" y="1451" type="curve" smooth="yes"/>
      <point x="-257" y="1504"/>
      <point x="-213" y="1561"/>
    </contour>
    <contour>
      <point x="-529" y="1244" type="line"/>
      <point x="-582" y="1311"/>
      <point x="-624" y="1407"/>
      <point x="-624" y="1503" type="curve" smooth="yes"/>
      <point x="-624" y="1667"/>
      <point x="-475" y="1822"/>
      <point x="-212" y="1822" type="curve" smooth="yes"/>
      <point x="-149" y="1822"/>
      <point x="-96" y="1814"/>
      <point x="-43" y="1801" type="curve"/>
      <point x="-54" y="1627" type="line"/>
      <point x="-83" y="1631"/>
      <point x="-106" y="1632"/>
      <point x="-149" y="1632" type="curve" smooth="yes"/>
      <point x="-259" y="1632"/>
      <point x="-336" y="1548"/>
      <point x="-336" y="1444" type="curve" smooth="yes"/>
      <point x="-336" y="1379"/>
      <point x="-310" y="1316"/>
      <point x="-257" y="1244" type="curve"/>
    </contour>
    <contour>
      <point x="-539" y="1293" type="move" name="_top"/>
    </contour>
  </outline>
</glyph>
<glyph name="rephdeva" format="1">
  <advance width="-1"/>
  <outline>
    <contour>
      <point x="-529" y="1244" type="line"/>
      <point x="-582" y="1311"/>
      <point x="-624" y="1407"/>
      <point x="-624" y="1503" type="curve" smooth="yes"/>
      <point x="-624" y="1667"/>
      <point x="-475" y="1822"/>
      <point x="-212" y="1822" type="curve" smooth="yes"/>
      <point x="-149" y="1822"/>
      <point x="-96" y="1814"/>
      <point x="-43" y="1801" type="curve"/>
      <point x="-54" y="1597" type="line"/>
      <point x="-91" y="1605"/>
      <point x="-120" y="1608"/>
      <point x="-173" y="1608" type="curve" smooth="yes"/>
      <point x="-264" y="1608"/>
      <point x="-331" y="1529"/>
      <point x="-331" y="1435" type="curve" smooth="yes"/>
      <point x="-331" y="1370"/>
      <point x="-310" y="1316"/>
      <point x="-257" y="1244" type="curve"/>
    </contour>
    <contour>
      <point x="-539" y="1293" type="move" name="_top"/>
    </contour>
  </outline>
</glyph>
<glyph name="rrvocaliclowdeva" format="1">
  <advance width="0"/>
  <outline>
    <contour>
      <point x="-40" y="-628" type="line"/>
      <point x="-110" y="-649"/>
      <point x="-203" y="-664"/>
      <point x="-296" y="-664" type="curve" smooth="yes"/>
      <point x="-541" y="-664"/>
      <point x="-632" y="-565"/>
      <point x="-632" y="-464" type="curve" smooth="yes"/>
      <point x="-632" y="-339"/>
      <point x="-476" y="-254"/>
      <point x="-237" y="-253" type="curve"/>
      <point x="-188" y="-361" type="line"/>
      <point x="-300" y="-362"/>
      <point x="-372" y="-405"/>
      <point x="-372" y="-452" type="curve" smooth="yes"/>
      <point x="-372" y="-490"/>
      <point x="-338" y="-517"/>
      <point x="-258" y="-517" type="curve" smooth="yes"/>
      <point x="-202" y="-517"/>
      <point x="-158" y="-507"/>
      <point x="-76" y="-482" type="curve"/>
    </contour>
    <contour>
      <point x="-117" y="-371" type="line"/>
      <point x="-216" y="-390"/>
      <point x="-275" y="-394"/>
      <point x="-357" y="-394" type="curve" smooth="yes"/>
      <point x="-612" y="-394"/>
      <point x="-759" y="-293"/>
      <point x="-759" y="-162" type="curve" smooth="yes"/>
      <point x="-759" y="-44"/>
      <point x="-603" y="50"/>
      <point x="-363" y="50" type="curve" smooth="yes"/>
      <point x="-285" y="50"/>
      <point x="-224" y="43"/>
      <point x="-188" y="37" type="curve"/>
      <point x="-188" y="-105" type="line"/>
      <point x="-227" y="-105"/>
      <point x="-272" y="-105"/>
      <point x="-313" y="-105" type="curve" smooth="yes"/>
      <point x="-419" y="-105"/>
      <point x="-458" y="-136"/>
      <point x="-458" y="-173" type="curve" smooth="yes"/>
      <point x="-458" y="-212"/>
      <point x="-417" y="-240"/>
      <point x="-348" y="-240" type="curve" smooth="yes"/>
      <point x="-292" y="-240"/>
      <point x="-243" y="-235"/>
      <point x="-156" y="-217" type="curve"/>
    </contour>
    <contour>
      <point x="-445" y="0" type="move" name="_btm"/>
    </contour>
  </outline>
</glyph>
<glyph name="shavadeva" format="1">
  <advance width="1632"/>
  <outline>
    <contour>
      <point x="198" y="327" type="line"/>
      <point x="48" y="576" type="line"/>
      <point x="334" y="722" type="line"/>
      <point x="575" y="845"/>
      <point x="635" y="911"/>
      <point x="635" y="982" type="curve" smooth="yes"/>
      <point x="635" y="1037"/>
      <point x="601" y="1076"/>
      <point x="547" y="1076" type="curve" smooth="yes"/>
      <point x="480" y="1076"/>
      <point x="450" y="1036"/>
      <point x="450" y="986" type="curve" smooth="yes"/>
      <point x="450" y="872"/>
      <point x="685" y="775"/>
      <point x="1270" y="691" type="curve"/>
      <point x="1199" y="456" type="line"/>
      <point x="421" y="536"/>
      <point x="148" y="769"/>
      <point x="148" y="1027" type="curve" smooth="yes"/>
      <point x="148" y="1180"/>
      <point x="275" y="1325"/>
      <point x="522" y="1325" type="curve" smooth="yes"/>
      <point x="776" y="1325"/>
      <point x="917" y="1166"/>
      <point x="917" y="977" type="curve" smooth="yes"/>
      <point x="917" y="787"/>
      <point x="787" y="631"/>
      <point x="477" y="471" type="curve" smooth="yes"/>
    </contour>
    <contour>
      <point x="1090" y="1104" type="line"/>
      <point x="1438" y="1104" type="line"/>
      <point x="1438" y="-339" type="line"/>
      <point x="1090" y="-339" type="line"/>
    </contour>
    <contour>
      <point x="1662" y="1065" type="line"/>
      <point x="1008" y="1065" type="line"/>
      <point x="1008" y="1293" type="line"/>
      <point x="1662" y="1293" type="line"/>
    </contour>
    <contour>
      <point x="1127" y="106" type="curve"/>
      <point x="1127" y="-204" type="line"/>
      <point x="1062" y="-235"/>
      <point x="978" y="-252"/>
      <point x="884" y="-252" type="curve" smooth="yes"/>
      <point x="592" y="-252"/>
      <point x="417" y="-71"/>
      <point x="417" y="111" type="curve" smooth="yes"/>
      <point x="417" y="284"/>
      <point x="557" y="413"/>
      <point x="803" y="413" type="curve" smooth="yes"/>
      <point x="966" y="413"/>
      <point x="1087" y="380"/>
      <point x="1183" y="333" type="curve"/>
      <point x="1181" y="106" type="line"/>
      <point x="1079" y="166"/>
      <point x="990" y="197"/>
      <point x="878" y="197" type="curve" smooth="yes"/>
      <point x="771" y="197"/>
      <point x="719" y="141"/>
      <point x="719" y="77" type="curve" smooth="yes"/>
      <point x="719" y="14"/>
      <point x="772" y="-25"/>
      <point x="845" y="-25" type="curve" smooth="yes"/>
      <point x="952" y="-25"/>
      <point x="1035" y="15"/>
    </contour>
    <contour>
      <point x="1090" y="-339" type="move" name="btm"/>
    </contour>
    <contour>
      <point x="1090" y="1293" type="move" name="top"/>
    </contour>
  </outline>
</glyph>
<glyph name="ssaprehalfdeva" format="1">
  <advance width="705"/>
  <outline>
    <contour>
      <point x="882" y="605" type="line"/>
      <point x="757" y="513" type="line"/>
      <point x="310" y="1054" type="line"/>
      <point x="435" y="1146" type="line"/>
    </contour>
    <contour>
      <point x="735" y="1065" type="line"/>
      <point x="-30" y="1065" type="line"/>
      <point x="-30" y="1293" type="line"/>
      <point x="735" y="1293" type="line"/>
    </contour>
    <contour>
      <point x="452" y="1171" type="line"/>
      <point x="452" y="688" type="line"/>
      <point x="452" y="599"/>
      <point x="503" y="549"/>
      <point x="584" y="549" type="curve" smooth="yes"/>
      <point x="707" y="549"/>
      <point x="842" y="597"/>
      <point x="949" y="683" type="curve"/>
      <point x="1107" y="428" type="line"/>
      <point x="951" y="329"/>
      <point x="792" y="273"/>
      <point x="613" y="273" type="curve" smooth="yes"/>
      <point x="314" y="273"/>
      <point x="113" y="453"/>
      <point x="113" y="756" type="curve" smooth="yes"/>
      <point x="113" y="1171" type="line"/>
    </contour>
  </outline>
</glyph>
<glyph name="ssatthadeva" format="1">
  <advance width="1307"/>
  <outline>
    <contour>
      <point x="920" y="604" type="line"/>
      <point x="796" y="511" type="line"/>
      <point x="408" y="1056" type="line"/>
      <point x="533" y="1148" type="line"/>
    </contour>
    <contour>
      <point x="1337" y="1065" type="line"/>
      <point x="-30" y="1065" type="line"/>
      <point x="-30" y="1293" type="line"/>
      <point x="1337" y="1293" type="line"/>
    </contour>
    <contour>
      <point x="844" y="774" type="curve" smooth="yes"/>
      <point x="844" y="1104" type="line"/>
      <point x="1183" y="1104" type="line"/>
      <point x="1183" y="757" type="line"/>
      <point x="1183" y="513"/>
      <point x="1030" y="330"/>
      <point x="682" y="330" type="curve" smooth="yes"/>
      <point x="354" y="330"/>
      <point x="124" y="501"/>
      <point x="124" y="811" type="curve" smooth="yes"/>
      <point x="124" y="1171" type="line"/>
      <point x="463" y="1171" type="line"/>
      <point x="463" y="732" type="line"/>
      <point x="463" y="644"/>
      <point x="560" y="597"/>
      <point x="634" y="597" type="curve" smooth="yes"/>
      <point x="765" y="597"/>
      <point x="844" y="665"/>
    </contour>
    <contour>
      <point x="924" y="190" type="curve" smooth="yes"/>
      <point x="924" y="247"/>
      <point x="896" y="297"/>
      <point x="842" y="330" type="curve"/>
      <point x="669" y="330" type="line"/>
      <point x="488" y="330"/>
      <point x="429" y="240"/>
      <point x="429" y="167" type="curve" smooth="yes"/>
      <point x="429" y="92"/>
      <point x="488" y="17"/>
      <point x="659" y="17" type="curve" smooth="yes"/>
      <point x="845" y="17"/>
      <point x="924" y="101"/>
    </contour>
    <contour>
      <point x="882" y="582" type="line"/>
      <point x="1131" y="501"/>
      <point x="1240" y="336"/>
      <point x="1240" y="155" type="curve" smooth="yes"/>
      <point x="1240" y="-48"/>
      <point x="1067" y="-222"/>
      <point x="703" y="-223" type="curve" smooth="yes"/>
      <point x="281" y="-224"/>
      <point x="100" y="-6"/>
      <point x="100" y="214" type="curve" smooth="yes"/>
      <point x="100" y="420"/>
      <point x="260" y="582"/>
      <point x="562" y="582" type="curve" smooth="yes"/>
    </contour>
    <contour>
      <point x="503" y="-216" type="move" name="btm"/>
    </contour>
    <contour>
      <point x="844" y="1293" type="move" name="top"/>
    </contour>
  </outline>
</glyph>
<glyph name="tathadeva" format="1">
  <advance width="2190"/>
  <outline>
    <contour>
      <point x="1060" y="763" type="curve"/>
      <point x="925" y="475" type="line"/>
      <point x="795" y="574"/>
      <point x="725" y="611"/>
      <point x="612" y="611" type="curve" smooth="yes"/>
      <point x="465" y="611"/>
      <point x="409" y="515"/>
      <point x="409" y="415" type="curve" smooth="yes"/>
      <point x="409" y="319"/>
      <point x="458" y="209"/>
      <point x="548" y="49" type="curve"/>
      <point x="271" y="-33" type="line"/>
      <point x="152" y="159"/>
      <point x="84" y="345"/>
      <point x="86" y="503" type="curve" smooth="yes"/>
      <point x="88" y="720"/>
      <point x="220" y="901"/>
      <point x="529" y="901" type="curve" smooth="yes"/>
      <point x="719" y="901"/>
      <point x="900" y="840"/>
    </contour>
    <contour>
      <point x="-30" y="1065" type="line"/>
      <point x="-30" y="1293" type="line"/>
      <point x="813" y="1293" type="line"/>
      <point x="813" y="1065" type="line"/>
    </contour>
    <component base="thadeva" xOffset="686"/>
  </outline>
</glyph>
<glyph name="thaprehalfdeva" format="1">
  <advance width="948"/>
  <outline>
    <contour>
      <point x="801" y="926" type="curve" smooth="yes"/>
      <point x="801" y="721"/>
      <point x="626" y="569"/>
      <point x="417" y="519" type="curve"/>
      <point x="418" y="619" type="line"/>
      <point x="483" y="542"/>
      <point x="559" y="490"/>
      <point x="678" y="490" type="curve" smooth="yes"/>
      <point x="857" y="490"/>
      <point x="1014" y="533"/>
      <point x="1188" y="685" type="curve"/>
      <point x="1323" y="425" type="line"/>
      <point x="1176" y="278"/>
      <point x="975" y="212"/>
      <point x="780" y="212" type="curve" smooth="yes"/>
      <point x="512" y="212"/>
      <point x="232" y="379"/>
      <point x="96" y="670" type="curve"/>
      <point x="96" y="675" type="line"/>
      <point x="307" y="714"/>
      <point x="504" y="828"/>
      <point x="504" y="967" type="curve" smooth="yes"/>
      <point x="504" y="1056"/>
      <point x="449" y="1105"/>
      <point x="392" y="1105" type="curve" smooth="yes"/>
      <point x="343" y="1105"/>
      <point x="315" y="1071"/>
      <point x="315" y="1023" type="curve" smooth="yes"/>
      <point x="315" y="963"/>
      <point x="365" y="903"/>
      <point x="490" y="856" type="curve"/>
      <point x="391" y="713" type="line"/>
      <point x="115" y="795"/>
      <point x="12" y="928"/>
      <point x="12" y="1082" type="curve" smooth="yes"/>
      <point x="12" y="1220"/>
      <point x="114" y="1341"/>
      <point x="323" y="1341" type="curve" smooth="yes"/>
      <point x="629" y="1341"/>
      <point x="801" y="1137"/>
    </contour>
  </outline>
</glyph>
<glyph name="tthayadeva" format="1">
  <advance width="2693"/>
  <outline>
    <contour>
      <point x="2156" y="1104" type="line"/>
      <point x="2504" y="1104" type="line"/>
      <point x="2504" y="-84" type="line"/>
      <point x="2156" y="-84" type="line"/>
    </contour>
    <contour>
      <point x="1207" y="1065" type="line"/>
      <point x="1207" y="1293" type="line"/>
      <point x="2723" y="1293" type="line"/>
      <point x="2723" y="1065" type="line"/>
    </contour>
    <contour>
      <point x="989" y="654" type="line"/>
      <point x="974" y="908" type="line"/>
      <point x="1571" y="908" type="line"/>
      <point x="1824" y="908"/>
      <point x="1942" y="781"/>
      <point x="1942" y="628" type="curve" smooth="yes"/>
      <point x="1942" y="471"/>
      <point x="1817" y="369"/>
      <point x="1652" y="321" type="curve"/>
      <point x="1652" y="424" type="line"/>
      <point x="1716" y="338"/>
      <point x="1792" y="292"/>
      <point x="1877" y="292" type="curve" smooth="yes"/>
      <point x="2034" y="292"/>
      <point x="2145" y="373"/>
      <point x="2202" y="506" type="curve"/>
      <point x="2202" y="47" type="line"/>
      <point x="2145" y="26"/>
      <point x="2087" y="15"/>
      <point x="1993" y="15" type="curve" smooth="yes"/>
      <point x="1712" y="15"/>
      <point x="1459" y="201"/>
      <point x="1331" y="471" type="curve"/>
      <point x="1331" y="477" type="line"/>
      <point x="1559" y="514"/>
      <point x="1635" y="561"/>
      <point x="1635" y="602" type="curve" smooth="yes"/>
      <point x="1635" y="636"/>
      <point x="1608" y="654"/>
      <point x="1517" y="654" type="curve" smooth="yes"/>
    </contour>
    <component base="tthadeva"/>
    <contour>
      <point x="2156" y="1293" type="move" name="top"/>
    </contour>
  </outline>
</glyph>
<glyph name="vattulowdeva" format="1">
  <advance width="-1"/>
  <outline>
    <contour>
      <point x="-288" y="63" type="line"/>
      <point x="171" y="-189" type="line"/>
      <point x="21" y="-399" type="line"/>
      <point x="-421" y="-148" type="line"/>
      <point x="-294" y="-148" type="line"/>
      <point x="-740" y="-401" type="line"/>
      <point x="-901" y="-181" type="line"/>
      <point x="-452" y="63" type="line"/>
    </contour>
    <contour>
      <point x="-539" y="0" type="move" name="_btm"/>
    </contour>
  </outline>
</glyph>
